<?xml version="1.0" encoding="utf-8" standalone="no"?>
<!DOCTYPE svg PUBLIC "-//W3C//DTD SVG 1.1//EN"
  "http://www.w3.org/Graphics/SVG/1.1/DTD/svg11.dtd">
<svg xmlns:xlink="http://www.w3.org/1999/xlink" width="428.849687pt" height="333.10825pt" viewBox="0 0 428.849687 333.10825" xmlns="http://www.w3.org/2000/svg" version="1.1">
 <metadata>
  <rdf:RDF xmlns:dc="http://purl.org/dc/elements/1.1/" xmlns:cc="http://creativecommons.org/ns#" xmlns:rdf="http://www.w3.org/1999/02/22-rdf-syntax-ns#">
   <cc:Work>
    <dc:type rdf:resource="http://purl.org/dc/dcmitype/StillImage"/>
    <dc:date>2025-03-27T16:40:34.808190</dc:date>
    <dc:format>image/svg+xml</dc:format>
    <dc:creator>
     <cc:Agent>
      <dc:title>Matplotlib v3.9.0, https://matplotlib.org/</dc:title>
     </cc:Agent>
    </dc:creator>
   </cc:Work>
  </rdf:RDF>
 </metadata>
 <defs>
  <style type="text/css">*{stroke-linejoin: round; stroke-linecap: butt}</style>
 </defs>
 <g id="figure_1">
  <g id="patch_1">
   <path d="M 0 333.10825 
L 428.849687 333.10825 
L 428.849687 0 
L 0 0 
z
" style="fill: #ffffff"/>
  </g>
  <g id="axes_1">
   <g id="patch_2">
    <path d="M 64.529688 288.430125 
L 421.649688 288.430125 
L 421.649688 22.318125 
L 64.529688 22.318125 
z
" style="fill: #ffffff"/>
   </g>
   <g id="matplotlib.axis_1">
    <g id="xtick_1">
     <g id="line2d_1">
      <path d="M 80.762415 288.430125 
L 80.762415 22.318125 
" clip-path="url(#p67adb4684d)" style="fill: none; stroke: #b0b0b0; stroke-width: 0.8; stroke-linecap: square"/>
     </g>
     <g id="line2d_2">
      <defs>
       <path id="m48c3ebbf9b" d="M 0 0 
L 0 3.5 
" style="stroke: #000000; stroke-width: 0.8"/>
      </defs>
      <g>
       <use xlink:href="#m48c3ebbf9b" x="80.762415" y="288.430125" style="stroke: #000000; stroke-width: 0.8"/>
      </g>
     </g>
     <g id="text_1">
      <!-- 0 -->
      <g transform="translate(77.581165 303.028562) scale(0.1 -0.1)">
       <defs>
        <path id="DejaVuSans-30" d="M 2034 4250 
Q 1547 4250 1301 3770 
Q 1056 3291 1056 2328 
Q 1056 1369 1301 889 
Q 1547 409 2034 409 
Q 2525 409 2770 889 
Q 3016 1369 3016 2328 
Q 3016 3291 2770 3770 
Q 2525 4250 2034 4250 
z
M 2034 4750 
Q 2819 4750 3233 4129 
Q 3647 3509 3647 2328 
Q 3647 1150 3233 529 
Q 2819 -91 2034 -91 
Q 1250 -91 836 529 
Q 422 1150 422 2328 
Q 422 3509 836 4129 
Q 1250 4750 2034 4750 
z
" transform="scale(0.015625)"/>
       </defs>
       <use xlink:href="#DejaVuSans-30"/>
      </g>
     </g>
    </g>
    <g id="xtick_2">
     <g id="line2d_3">
      <path d="M 157.582654 288.430125 
L 157.582654 22.318125 
" clip-path="url(#p67adb4684d)" style="fill: none; stroke: #b0b0b0; stroke-width: 0.8; stroke-linecap: square"/>
     </g>
     <g id="line2d_4">
      <g>
       <use xlink:href="#m48c3ebbf9b" x="157.582654" y="288.430125" style="stroke: #000000; stroke-width: 0.8"/>
      </g>
     </g>
     <g id="text_2">
      <!-- 5 -->
      <g transform="translate(154.401404 303.028562) scale(0.1 -0.1)">
       <defs>
        <path id="DejaVuSans-35" d="M 691 4666 
L 3169 4666 
L 3169 4134 
L 1269 4134 
L 1269 2991 
Q 1406 3038 1543 3061 
Q 1681 3084 1819 3084 
Q 2600 3084 3056 2656 
Q 3513 2228 3513 1497 
Q 3513 744 3044 326 
Q 2575 -91 1722 -91 
Q 1428 -91 1123 -41 
Q 819 9 494 109 
L 494 744 
Q 775 591 1075 516 
Q 1375 441 1709 441 
Q 2250 441 2565 725 
Q 2881 1009 2881 1497 
Q 2881 1984 2565 2268 
Q 2250 2553 1709 2553 
Q 1456 2553 1204 2497 
Q 953 2441 691 2322 
L 691 4666 
z
" transform="scale(0.015625)"/>
       </defs>
       <use xlink:href="#DejaVuSans-35"/>
      </g>
     </g>
    </g>
    <g id="xtick_3">
     <g id="line2d_5">
      <path d="M 234.402893 288.430125 
L 234.402893 22.318125 
" clip-path="url(#p67adb4684d)" style="fill: none; stroke: #b0b0b0; stroke-width: 0.8; stroke-linecap: square"/>
     </g>
     <g id="line2d_6">
      <g>
       <use xlink:href="#m48c3ebbf9b" x="234.402893" y="288.430125" style="stroke: #000000; stroke-width: 0.8"/>
      </g>
     </g>
     <g id="text_3">
      <!-- 10 -->
      <g transform="translate(228.040393 303.028562) scale(0.1 -0.1)">
       <defs>
        <path id="DejaVuSans-31" d="M 794 531 
L 1825 531 
L 1825 4091 
L 703 3866 
L 703 4441 
L 1819 4666 
L 2450 4666 
L 2450 531 
L 3481 531 
L 3481 0 
L 794 0 
L 794 531 
z
" transform="scale(0.015625)"/>
       </defs>
       <use xlink:href="#DejaVuSans-31"/>
       <use xlink:href="#DejaVuSans-30" x="63.623047"/>
      </g>
     </g>
    </g>
    <g id="xtick_4">
     <g id="line2d_7">
      <path d="M 311.223132 288.430125 
L 311.223132 22.318125 
" clip-path="url(#p67adb4684d)" style="fill: none; stroke: #b0b0b0; stroke-width: 0.8; stroke-linecap: square"/>
     </g>
     <g id="line2d_8">
      <g>
       <use xlink:href="#m48c3ebbf9b" x="311.223132" y="288.430125" style="stroke: #000000; stroke-width: 0.8"/>
      </g>
     </g>
     <g id="text_4">
      <!-- 15 -->
      <g transform="translate(304.860632 303.028562) scale(0.1 -0.1)">
       <use xlink:href="#DejaVuSans-31"/>
       <use xlink:href="#DejaVuSans-35" x="63.623047"/>
      </g>
     </g>
    </g>
    <g id="xtick_5">
     <g id="line2d_9">
      <path d="M 388.043372 288.430125 
L 388.043372 22.318125 
" clip-path="url(#p67adb4684d)" style="fill: none; stroke: #b0b0b0; stroke-width: 0.8; stroke-linecap: square"/>
     </g>
     <g id="line2d_10">
      <g>
       <use xlink:href="#m48c3ebbf9b" x="388.043372" y="288.430125" style="stroke: #000000; stroke-width: 0.8"/>
      </g>
     </g>
     <g id="text_5">
      <!-- 20 -->
      <g transform="translate(381.680872 303.028562) scale(0.1 -0.1)">
       <defs>
        <path id="DejaVuSans-32" d="M 1228 531 
L 3431 531 
L 3431 0 
L 469 0 
L 469 531 
Q 828 903 1448 1529 
Q 2069 2156 2228 2338 
Q 2531 2678 2651 2914 
Q 2772 3150 2772 3378 
Q 2772 3750 2511 3984 
Q 2250 4219 1831 4219 
Q 1534 4219 1204 4116 
Q 875 4013 500 3803 
L 500 4441 
Q 881 4594 1212 4672 
Q 1544 4750 1819 4750 
Q 2544 4750 2975 4387 
Q 3406 4025 3406 3419 
Q 3406 3131 3298 2873 
Q 3191 2616 2906 2266 
Q 2828 2175 2409 1742 
Q 1991 1309 1228 531 
z
" transform="scale(0.015625)"/>
       </defs>
       <use xlink:href="#DejaVuSans-32"/>
       <use xlink:href="#DejaVuSans-30" x="63.623047"/>
      </g>
     </g>
    </g>
    <g id="text_6">
     <!-- Velocity $\left[\frac{\mathit{m}}{\mathit{s}}\right]$ -->
     <g transform="translate(199.439688 321.70825) scale(0.15 -0.15)">
      <defs>
       <path id="DejaVuSans-56" d="M 1831 0 
L 50 4666 
L 709 4666 
L 2188 738 
L 3669 4666 
L 4325 4666 
L 2547 0 
L 1831 0 
z
" transform="scale(0.015625)"/>
       <path id="DejaVuSans-65" d="M 3597 1894 
L 3597 1613 
L 953 1613 
Q 991 1019 1311 708 
Q 1631 397 2203 397 
Q 2534 397 2845 478 
Q 3156 559 3463 722 
L 3463 178 
Q 3153 47 2828 -22 
Q 2503 -91 2169 -91 
Q 1331 -91 842 396 
Q 353 884 353 1716 
Q 353 2575 817 3079 
Q 1281 3584 2069 3584 
Q 2775 3584 3186 3129 
Q 3597 2675 3597 1894 
z
M 3022 2063 
Q 3016 2534 2758 2815 
Q 2500 3097 2075 3097 
Q 1594 3097 1305 2825 
Q 1016 2553 972 2059 
L 3022 2063 
z
" transform="scale(0.015625)"/>
       <path id="DejaVuSans-6c" d="M 603 4863 
L 1178 4863 
L 1178 0 
L 603 0 
L 603 4863 
z
" transform="scale(0.015625)"/>
       <path id="DejaVuSans-6f" d="M 1959 3097 
Q 1497 3097 1228 2736 
Q 959 2375 959 1747 
Q 959 1119 1226 758 
Q 1494 397 1959 397 
Q 2419 397 2687 759 
Q 2956 1122 2956 1747 
Q 2956 2369 2687 2733 
Q 2419 3097 1959 3097 
z
M 1959 3584 
Q 2709 3584 3137 3096 
Q 3566 2609 3566 1747 
Q 3566 888 3137 398 
Q 2709 -91 1959 -91 
Q 1206 -91 779 398 
Q 353 888 353 1747 
Q 353 2609 779 3096 
Q 1206 3584 1959 3584 
z
" transform="scale(0.015625)"/>
       <path id="DejaVuSans-63" d="M 3122 3366 
L 3122 2828 
Q 2878 2963 2633 3030 
Q 2388 3097 2138 3097 
Q 1578 3097 1268 2742 
Q 959 2388 959 1747 
Q 959 1106 1268 751 
Q 1578 397 2138 397 
Q 2388 397 2633 464 
Q 2878 531 3122 666 
L 3122 134 
Q 2881 22 2623 -34 
Q 2366 -91 2075 -91 
Q 1284 -91 818 406 
Q 353 903 353 1747 
Q 353 2603 823 3093 
Q 1294 3584 2113 3584 
Q 2378 3584 2631 3529 
Q 2884 3475 3122 3366 
z
" transform="scale(0.015625)"/>
       <path id="DejaVuSans-69" d="M 603 3500 
L 1178 3500 
L 1178 0 
L 603 0 
L 603 3500 
z
M 603 4863 
L 1178 4863 
L 1178 4134 
L 603 4134 
L 603 4863 
z
" transform="scale(0.015625)"/>
       <path id="DejaVuSans-74" d="M 1172 4494 
L 1172 3500 
L 2356 3500 
L 2356 3053 
L 1172 3053 
L 1172 1153 
Q 1172 725 1289 603 
Q 1406 481 1766 481 
L 2356 481 
L 2356 0 
L 1766 0 
Q 1100 0 847 248 
Q 594 497 594 1153 
L 594 3053 
L 172 3053 
L 172 3500 
L 594 3500 
L 594 4494 
L 1172 4494 
z
" transform="scale(0.015625)"/>
       <path id="DejaVuSans-79" d="M 2059 -325 
Q 1816 -950 1584 -1140 
Q 1353 -1331 966 -1331 
L 506 -1331 
L 506 -850 
L 844 -850 
Q 1081 -850 1212 -737 
Q 1344 -625 1503 -206 
L 1606 56 
L 191 3500 
L 800 3500 
L 1894 763 
L 2988 3500 
L 3597 3500 
L 2059 -325 
z
" transform="scale(0.015625)"/>
       <path id="DejaVuSans-20" transform="scale(0.015625)"/>
       <path id="STIXSizeOneSym-Regular-5b" d="M 2323 -1050 
L 1152 -1050 
L 1152 6822 
L 2323 6822 
L 2323 6611 
L 1600 6611 
L 1600 -838 
L 2323 -838 
L 2323 -1050 
z
" transform="scale(0.015625)"/>
       <path id="DejaVuSans-Oblique-6d" d="M 5747 2113 
L 5338 0 
L 4763 0 
L 5166 2094 
Q 5191 2228 5203 2325 
Q 5216 2422 5216 2491 
Q 5216 2772 5059 2928 
Q 4903 3084 4622 3084 
Q 4203 3084 3875 2770 
Q 3547 2456 3450 1953 
L 3066 0 
L 2491 0 
L 2900 2094 
Q 2925 2209 2937 2307 
Q 2950 2406 2950 2484 
Q 2950 2769 2794 2926 
Q 2638 3084 2363 3084 
Q 1938 3084 1609 2770 
Q 1281 2456 1184 1953 
L 800 0 
L 225 0 
L 909 3500 
L 1484 3500 
L 1375 2956 
Q 1609 3263 1923 3423 
Q 2238 3584 2597 3584 
Q 2978 3584 3223 3384 
Q 3469 3184 3519 2828 
Q 3781 3197 4126 3390 
Q 4472 3584 4856 3584 
Q 5306 3584 5551 3325 
Q 5797 3066 5797 2591 
Q 5797 2488 5784 2364 
Q 5772 2241 5747 2113 
z
" transform="scale(0.015625)"/>
       <path id="DejaVuSans-Oblique-73" d="M 3200 3397 
L 3091 2853 
Q 2863 2978 2609 3040 
Q 2356 3103 2088 3103 
Q 1634 3103 1373 2948 
Q 1113 2794 1113 2528 
Q 1113 2219 1719 2053 
Q 1766 2041 1788 2034 
L 1972 1978 
Q 2547 1819 2739 1644 
Q 2931 1469 2931 1166 
Q 2931 609 2489 259 
Q 2047 -91 1331 -91 
Q 1053 -91 747 -37 
Q 441 16 72 128 
L 184 722 
Q 500 559 806 475 
Q 1113 391 1394 391 
Q 1816 391 2080 572 
Q 2344 753 2344 1031 
Q 2344 1331 1650 1516 
L 1591 1531 
L 1394 1581 
Q 956 1697 753 1886 
Q 550 2075 550 2369 
Q 550 2928 970 3256 
Q 1391 3584 2113 3584 
Q 2397 3584 2667 3537 
Q 2938 3491 3200 3397 
z
" transform="scale(0.015625)"/>
       <path id="STIXSizeOneSym-Regular-5d" d="M 1299 -1050 
L 128 -1050 
L 128 -838 
L 851 -838 
L 851 6611 
L 128 6611 
L 128 6822 
L 1299 6822 
L 1299 -1050 
z
" transform="scale(0.015625)"/>
      </defs>
      <use xlink:href="#DejaVuSans-56" transform="translate(0 0.945312)"/>
      <use xlink:href="#DejaVuSans-65" transform="translate(68.408203 0.945312)"/>
      <use xlink:href="#DejaVuSans-6c" transform="translate(129.931641 0.945312)"/>
      <use xlink:href="#DejaVuSans-6f" transform="translate(157.714844 0.945312)"/>
      <use xlink:href="#DejaVuSans-63" transform="translate(218.896484 0.945312)"/>
      <use xlink:href="#DejaVuSans-69" transform="translate(273.876953 0.945312)"/>
      <use xlink:href="#DejaVuSans-74" transform="translate(301.660156 0.945312)"/>
      <use xlink:href="#DejaVuSans-79" transform="translate(340.869141 0.945312)"/>
      <use xlink:href="#DejaVuSans-20" transform="translate(400.048828 0.945312)"/>
      <use xlink:href="#STIXSizeOneSym-Regular-5b" transform="translate(431.835938 -11.9375) scale(0.899555)"/>
      <use xlink:href="#DejaVuSans-Oblique-6d" transform="translate(466.305939 44.742187) scale(0.7)"/>
      <use xlink:href="#DejaVuSans-Oblique-73" transform="translate(482.305939 -25.707813) scale(0.7)"/>
      <use xlink:href="#STIXSizeOneSym-Regular-5d" transform="translate(546.994415 -11.9375) scale(0.899555)"/>
      <path d="M 466.305939 19.742188 
L 466.305939 25.992187 
L 534.494415 25.992187 
L 534.494415 19.742188 
L 466.305939 19.742188 
z
"/>
     </g>
    </g>
   </g>
   <g id="matplotlib.axis_2">
    <g id="ytick_1">
     <g id="line2d_11">
      <path d="M 64.529688 276.334125 
L 421.649688 276.334125 
" clip-path="url(#p67adb4684d)" style="fill: none; stroke: #b0b0b0; stroke-width: 0.8; stroke-linecap: square"/>
     </g>
     <g id="line2d_12">
      <defs>
       <path id="maa60ccb13f" d="M 0 0 
L -3.5 0 
" style="stroke: #000000; stroke-width: 0.8"/>
      </defs>
      <g>
       <use xlink:href="#maa60ccb13f" x="64.529688" y="276.334125" style="stroke: #000000; stroke-width: 0.8"/>
      </g>
     </g>
     <g id="text_7">
      <!-- 0 -->
      <g transform="translate(51.167188 280.133344) scale(0.1 -0.1)">
       <use xlink:href="#DejaVuSans-30"/>
      </g>
     </g>
    </g>
    <g id="ytick_2">
     <g id="line2d_13">
      <path d="M 64.529688 243.421526 
L 421.649688 243.421526 
" clip-path="url(#p67adb4684d)" style="fill: none; stroke: #b0b0b0; stroke-width: 0.8; stroke-linecap: square"/>
     </g>
     <g id="line2d_14">
      <g>
       <use xlink:href="#maa60ccb13f" x="64.529688" y="243.421526" style="stroke: #000000; stroke-width: 0.8"/>
      </g>
     </g>
     <g id="text_8">
      <!-- 2000 -->
      <g transform="translate(32.079688 247.220745) scale(0.1 -0.1)">
       <use xlink:href="#DejaVuSans-32"/>
       <use xlink:href="#DejaVuSans-30" x="63.623047"/>
       <use xlink:href="#DejaVuSans-30" x="127.246094"/>
       <use xlink:href="#DejaVuSans-30" x="190.869141"/>
      </g>
     </g>
    </g>
    <g id="ytick_3">
     <g id="line2d_15">
      <path d="M 64.529688 210.508927 
L 421.649688 210.508927 
" clip-path="url(#p67adb4684d)" style="fill: none; stroke: #b0b0b0; stroke-width: 0.8; stroke-linecap: square"/>
     </g>
     <g id="line2d_16">
      <g>
       <use xlink:href="#maa60ccb13f" x="64.529688" y="210.508927" style="stroke: #000000; stroke-width: 0.8"/>
      </g>
     </g>
     <g id="text_9">
      <!-- 4000 -->
      <g transform="translate(32.079688 214.308146) scale(0.1 -0.1)">
       <defs>
        <path id="DejaVuSans-34" d="M 2419 4116 
L 825 1625 
L 2419 1625 
L 2419 4116 
z
M 2253 4666 
L 3047 4666 
L 3047 1625 
L 3713 1625 
L 3713 1100 
L 3047 1100 
L 3047 0 
L 2419 0 
L 2419 1100 
L 313 1100 
L 313 1709 
L 2253 4666 
z
" transform="scale(0.015625)"/>
       </defs>
       <use xlink:href="#DejaVuSans-34"/>
       <use xlink:href="#DejaVuSans-30" x="63.623047"/>
       <use xlink:href="#DejaVuSans-30" x="127.246094"/>
       <use xlink:href="#DejaVuSans-30" x="190.869141"/>
      </g>
     </g>
    </g>
    <g id="ytick_4">
     <g id="line2d_17">
      <path d="M 64.529688 177.596328 
L 421.649688 177.596328 
" clip-path="url(#p67adb4684d)" style="fill: none; stroke: #b0b0b0; stroke-width: 0.8; stroke-linecap: square"/>
     </g>
     <g id="line2d_18">
      <g>
       <use xlink:href="#maa60ccb13f" x="64.529688" y="177.596328" style="stroke: #000000; stroke-width: 0.8"/>
      </g>
     </g>
     <g id="text_10">
      <!-- 6000 -->
      <g transform="translate(32.079688 181.395546) scale(0.1 -0.1)">
       <defs>
        <path id="DejaVuSans-36" d="M 2113 2584 
Q 1688 2584 1439 2293 
Q 1191 2003 1191 1497 
Q 1191 994 1439 701 
Q 1688 409 2113 409 
Q 2538 409 2786 701 
Q 3034 994 3034 1497 
Q 3034 2003 2786 2293 
Q 2538 2584 2113 2584 
z
M 3366 4563 
L 3366 3988 
Q 3128 4100 2886 4159 
Q 2644 4219 2406 4219 
Q 1781 4219 1451 3797 
Q 1122 3375 1075 2522 
Q 1259 2794 1537 2939 
Q 1816 3084 2150 3084 
Q 2853 3084 3261 2657 
Q 3669 2231 3669 1497 
Q 3669 778 3244 343 
Q 2819 -91 2113 -91 
Q 1303 -91 875 529 
Q 447 1150 447 2328 
Q 447 3434 972 4092 
Q 1497 4750 2381 4750 
Q 2619 4750 2861 4703 
Q 3103 4656 3366 4563 
z
" transform="scale(0.015625)"/>
       </defs>
       <use xlink:href="#DejaVuSans-36"/>
       <use xlink:href="#DejaVuSans-30" x="63.623047"/>
       <use xlink:href="#DejaVuSans-30" x="127.246094"/>
       <use xlink:href="#DejaVuSans-30" x="190.869141"/>
      </g>
     </g>
    </g>
    <g id="ytick_5">
     <g id="line2d_19">
      <path d="M 64.529688 144.683729 
L 421.649688 144.683729 
" clip-path="url(#p67adb4684d)" style="fill: none; stroke: #b0b0b0; stroke-width: 0.8; stroke-linecap: square"/>
     </g>
     <g id="line2d_20">
      <g>
       <use xlink:href="#maa60ccb13f" x="64.529688" y="144.683729" style="stroke: #000000; stroke-width: 0.8"/>
      </g>
     </g>
     <g id="text_11">
      <!-- 8000 -->
      <g transform="translate(32.079688 148.482947) scale(0.1 -0.1)">
       <defs>
        <path id="DejaVuSans-38" d="M 2034 2216 
Q 1584 2216 1326 1975 
Q 1069 1734 1069 1313 
Q 1069 891 1326 650 
Q 1584 409 2034 409 
Q 2484 409 2743 651 
Q 3003 894 3003 1313 
Q 3003 1734 2745 1975 
Q 2488 2216 2034 2216 
z
M 1403 2484 
Q 997 2584 770 2862 
Q 544 3141 544 3541 
Q 544 4100 942 4425 
Q 1341 4750 2034 4750 
Q 2731 4750 3128 4425 
Q 3525 4100 3525 3541 
Q 3525 3141 3298 2862 
Q 3072 2584 2669 2484 
Q 3125 2378 3379 2068 
Q 3634 1759 3634 1313 
Q 3634 634 3220 271 
Q 2806 -91 2034 -91 
Q 1263 -91 848 271 
Q 434 634 434 1313 
Q 434 1759 690 2068 
Q 947 2378 1403 2484 
z
M 1172 3481 
Q 1172 3119 1398 2916 
Q 1625 2713 2034 2713 
Q 2441 2713 2670 2916 
Q 2900 3119 2900 3481 
Q 2900 3844 2670 4047 
Q 2441 4250 2034 4250 
Q 1625 4250 1398 4047 
Q 1172 3844 1172 3481 
z
" transform="scale(0.015625)"/>
       </defs>
       <use xlink:href="#DejaVuSans-38"/>
       <use xlink:href="#DejaVuSans-30" x="63.623047"/>
       <use xlink:href="#DejaVuSans-30" x="127.246094"/>
       <use xlink:href="#DejaVuSans-30" x="190.869141"/>
      </g>
     </g>
    </g>
    <g id="ytick_6">
     <g id="line2d_21">
      <path d="M 64.529688 111.77113 
L 421.649688 111.77113 
" clip-path="url(#p67adb4684d)" style="fill: none; stroke: #b0b0b0; stroke-width: 0.8; stroke-linecap: square"/>
     </g>
     <g id="line2d_22">
      <g>
       <use xlink:href="#maa60ccb13f" x="64.529688" y="111.77113" style="stroke: #000000; stroke-width: 0.8"/>
      </g>
     </g>
     <g id="text_12">
      <!-- 10000 -->
      <g transform="translate(25.717188 115.570348) scale(0.1 -0.1)">
       <use xlink:href="#DejaVuSans-31"/>
       <use xlink:href="#DejaVuSans-30" x="63.623047"/>
       <use xlink:href="#DejaVuSans-30" x="127.246094"/>
       <use xlink:href="#DejaVuSans-30" x="190.869141"/>
       <use xlink:href="#DejaVuSans-30" x="254.492188"/>
      </g>
     </g>
    </g>
    <g id="ytick_7">
     <g id="line2d_23">
      <path d="M 64.529688 78.85853 
L 421.649688 78.85853 
" clip-path="url(#p67adb4684d)" style="fill: none; stroke: #b0b0b0; stroke-width: 0.8; stroke-linecap: square"/>
     </g>
     <g id="line2d_24">
      <g>
       <use xlink:href="#maa60ccb13f" x="64.529688" y="78.85853" style="stroke: #000000; stroke-width: 0.8"/>
      </g>
     </g>
     <g id="text_13">
      <!-- 12000 -->
      <g transform="translate(25.717188 82.657749) scale(0.1 -0.1)">
       <use xlink:href="#DejaVuSans-31"/>
       <use xlink:href="#DejaVuSans-32" x="63.623047"/>
       <use xlink:href="#DejaVuSans-30" x="127.246094"/>
       <use xlink:href="#DejaVuSans-30" x="190.869141"/>
       <use xlink:href="#DejaVuSans-30" x="254.492188"/>
      </g>
     </g>
    </g>
    <g id="ytick_8">
     <g id="line2d_25">
      <path d="M 64.529688 45.945931 
L 421.649688 45.945931 
" clip-path="url(#p67adb4684d)" style="fill: none; stroke: #b0b0b0; stroke-width: 0.8; stroke-linecap: square"/>
     </g>
     <g id="line2d_26">
      <g>
       <use xlink:href="#maa60ccb13f" x="64.529688" y="45.945931" style="stroke: #000000; stroke-width: 0.8"/>
      </g>
     </g>
     <g id="text_14">
      <!-- 14000 -->
      <g transform="translate(25.717188 49.74515) scale(0.1 -0.1)">
       <use xlink:href="#DejaVuSans-31"/>
       <use xlink:href="#DejaVuSans-34" x="63.623047"/>
       <use xlink:href="#DejaVuSans-30" x="127.246094"/>
       <use xlink:href="#DejaVuSans-30" x="190.869141"/>
       <use xlink:href="#DejaVuSans-30" x="254.492188"/>
      </g>
     </g>
    </g>
    <g id="text_15">
     <!-- Power produced[W] -->
     <g transform="translate(18.597656 228.976078) rotate(-90) scale(0.15 -0.15)">
      <defs>
       <path id="DejaVuSans-50" d="M 1259 4147 
L 1259 2394 
L 2053 2394 
Q 2494 2394 2734 2622 
Q 2975 2850 2975 3272 
Q 2975 3691 2734 3919 
Q 2494 4147 2053 4147 
L 1259 4147 
z
M 628 4666 
L 2053 4666 
Q 2838 4666 3239 4311 
Q 3641 3956 3641 3272 
Q 3641 2581 3239 2228 
Q 2838 1875 2053 1875 
L 1259 1875 
L 1259 0 
L 628 0 
L 628 4666 
z
" transform="scale(0.015625)"/>
       <path id="DejaVuSans-77" d="M 269 3500 
L 844 3500 
L 1563 769 
L 2278 3500 
L 2956 3500 
L 3675 769 
L 4391 3500 
L 4966 3500 
L 4050 0 
L 3372 0 
L 2619 2869 
L 1863 0 
L 1184 0 
L 269 3500 
z
" transform="scale(0.015625)"/>
       <path id="DejaVuSans-72" d="M 2631 2963 
Q 2534 3019 2420 3045 
Q 2306 3072 2169 3072 
Q 1681 3072 1420 2755 
Q 1159 2438 1159 1844 
L 1159 0 
L 581 0 
L 581 3500 
L 1159 3500 
L 1159 2956 
Q 1341 3275 1631 3429 
Q 1922 3584 2338 3584 
Q 2397 3584 2469 3576 
Q 2541 3569 2628 3553 
L 2631 2963 
z
" transform="scale(0.015625)"/>
       <path id="DejaVuSans-70" d="M 1159 525 
L 1159 -1331 
L 581 -1331 
L 581 3500 
L 1159 3500 
L 1159 2969 
Q 1341 3281 1617 3432 
Q 1894 3584 2278 3584 
Q 2916 3584 3314 3078 
Q 3713 2572 3713 1747 
Q 3713 922 3314 415 
Q 2916 -91 2278 -91 
Q 1894 -91 1617 61 
Q 1341 213 1159 525 
z
M 3116 1747 
Q 3116 2381 2855 2742 
Q 2594 3103 2138 3103 
Q 1681 3103 1420 2742 
Q 1159 2381 1159 1747 
Q 1159 1113 1420 752 
Q 1681 391 2138 391 
Q 2594 391 2855 752 
Q 3116 1113 3116 1747 
z
" transform="scale(0.015625)"/>
       <path id="DejaVuSans-64" d="M 2906 2969 
L 2906 4863 
L 3481 4863 
L 3481 0 
L 2906 0 
L 2906 525 
Q 2725 213 2448 61 
Q 2172 -91 1784 -91 
Q 1150 -91 751 415 
Q 353 922 353 1747 
Q 353 2572 751 3078 
Q 1150 3584 1784 3584 
Q 2172 3584 2448 3432 
Q 2725 3281 2906 2969 
z
M 947 1747 
Q 947 1113 1208 752 
Q 1469 391 1925 391 
Q 2381 391 2643 752 
Q 2906 1113 2906 1747 
Q 2906 2381 2643 2742 
Q 2381 3103 1925 3103 
Q 1469 3103 1208 2742 
Q 947 2381 947 1747 
z
" transform="scale(0.015625)"/>
       <path id="DejaVuSans-75" d="M 544 1381 
L 544 3500 
L 1119 3500 
L 1119 1403 
Q 1119 906 1312 657 
Q 1506 409 1894 409 
Q 2359 409 2629 706 
Q 2900 1003 2900 1516 
L 2900 3500 
L 3475 3500 
L 3475 0 
L 2900 0 
L 2900 538 
Q 2691 219 2414 64 
Q 2138 -91 1772 -91 
Q 1169 -91 856 284 
Q 544 659 544 1381 
z
M 1991 3584 
L 1991 3584 
z
" transform="scale(0.015625)"/>
       <path id="DejaVuSans-5b" d="M 550 4863 
L 1875 4863 
L 1875 4416 
L 1125 4416 
L 1125 -397 
L 1875 -397 
L 1875 -844 
L 550 -844 
L 550 4863 
z
" transform="scale(0.015625)"/>
       <path id="DejaVuSans-57" d="M 213 4666 
L 850 4666 
L 1831 722 
L 2809 4666 
L 3519 4666 
L 4500 722 
L 5478 4666 
L 6119 4666 
L 4947 0 
L 4153 0 
L 3169 4050 
L 2175 0 
L 1381 0 
L 213 4666 
z
" transform="scale(0.015625)"/>
       <path id="DejaVuSans-5d" d="M 1947 4863 
L 1947 -844 
L 622 -844 
L 622 -397 
L 1369 -397 
L 1369 4416 
L 622 4416 
L 622 4863 
L 1947 4863 
z
" transform="scale(0.015625)"/>
      </defs>
      <use xlink:href="#DejaVuSans-50"/>
      <use xlink:href="#DejaVuSans-6f" x="56.677734"/>
      <use xlink:href="#DejaVuSans-77" x="117.859375"/>
      <use xlink:href="#DejaVuSans-65" x="199.646484"/>
      <use xlink:href="#DejaVuSans-72" x="261.169922"/>
      <use xlink:href="#DejaVuSans-20" x="302.283203"/>
      <use xlink:href="#DejaVuSans-70" x="334.070312"/>
      <use xlink:href="#DejaVuSans-72" x="397.546875"/>
      <use xlink:href="#DejaVuSans-6f" x="436.410156"/>
      <use xlink:href="#DejaVuSans-64" x="497.591797"/>
      <use xlink:href="#DejaVuSans-75" x="561.068359"/>
      <use xlink:href="#DejaVuSans-63" x="624.447266"/>
      <use xlink:href="#DejaVuSans-65" x="679.427734"/>
      <use xlink:href="#DejaVuSans-64" x="740.951172"/>
      <use xlink:href="#DejaVuSans-5b" x="804.427734"/>
      <use xlink:href="#DejaVuSans-57" x="843.441406"/>
      <use xlink:href="#DejaVuSans-5d" x="942.318359"/>
     </g>
    </g>
   </g>
   <g id="line2d_27">
    <path d="M 80.762415 276.334125 
L 96.126463 276.317669 
L 111.49051 276.301212 
L 128.496853 269.335241 
L 143.835913 260.916621 
L 159.191164 247.378444 
L 174.557167 227.444998 
L 189.930031 199.933558 
L 205.308243 163.901164 
L 220.690642 119.17639 
L 234.390869 69.79791 
L 245.154817 51.770196 
L 251.464319 43.862305 
L 266.855058 36.482889 
L 282.246648 34.794662 
L 297.640726 34.524672 
L 313.035653 35.033591 
L 328.430917 35.575473 
L 343.827669 36.06275 
L 359.224523 36.417977 
L 374.621874 36.745 
L 390.019829 37.033046 
L 405.41696 37.151769 
" clip-path="url(#p67adb4684d)" style="fill: none; stroke: #1f77b4; stroke-width: 1.5; stroke-linecap: square"/>
    <defs>
     <path id="m181ceae6a0" d="M 0 3 
C 0.795609 3 1.55874 2.683901 2.12132 2.12132 
C 2.683901 1.55874 3 0.795609 3 0 
C 3 -0.795609 2.683901 -1.55874 2.12132 -2.12132 
C 1.55874 -2.683901 0.795609 -3 0 -3 
C -0.795609 -3 -1.55874 -2.683901 -2.12132 -2.12132 
C -2.683901 -1.55874 -3 -0.795609 -3 0 
C -3 0.795609 -2.683901 1.55874 -2.12132 2.12132 
C -1.55874 2.683901 -0.795609 3 0 3 
z
" style="stroke: #1f77b4"/>
    </defs>
    <g clip-path="url(#p67adb4684d)">
     <use xlink:href="#m181ceae6a0" x="80.762415" y="276.334125" style="fill: #1f77b4; stroke: #1f77b4"/>
     <use xlink:href="#m181ceae6a0" x="96.126463" y="276.317669" style="fill: #1f77b4; stroke: #1f77b4"/>
     <use xlink:href="#m181ceae6a0" x="111.49051" y="276.301212" style="fill: #1f77b4; stroke: #1f77b4"/>
     <use xlink:href="#m181ceae6a0" x="128.496853" y="269.335241" style="fill: #1f77b4; stroke: #1f77b4"/>
     <use xlink:href="#m181ceae6a0" x="143.835913" y="260.916621" style="fill: #1f77b4; stroke: #1f77b4"/>
     <use xlink:href="#m181ceae6a0" x="159.191164" y="247.378444" style="fill: #1f77b4; stroke: #1f77b4"/>
     <use xlink:href="#m181ceae6a0" x="174.557167" y="227.444998" style="fill: #1f77b4; stroke: #1f77b4"/>
     <use xlink:href="#m181ceae6a0" x="189.930031" y="199.933558" style="fill: #1f77b4; stroke: #1f77b4"/>
     <use xlink:href="#m181ceae6a0" x="205.308243" y="163.901164" style="fill: #1f77b4; stroke: #1f77b4"/>
     <use xlink:href="#m181ceae6a0" x="220.690642" y="119.17639" style="fill: #1f77b4; stroke: #1f77b4"/>
     <use xlink:href="#m181ceae6a0" x="234.390869" y="69.79791" style="fill: #1f77b4; stroke: #1f77b4"/>
     <use xlink:href="#m181ceae6a0" x="245.154817" y="51.770196" style="fill: #1f77b4; stroke: #1f77b4"/>
     <use xlink:href="#m181ceae6a0" x="251.464319" y="43.862305" style="fill: #1f77b4; stroke: #1f77b4"/>
     <use xlink:href="#m181ceae6a0" x="266.855058" y="36.482889" style="fill: #1f77b4; stroke: #1f77b4"/>
     <use xlink:href="#m181ceae6a0" x="282.246648" y="34.794662" style="fill: #1f77b4; stroke: #1f77b4"/>
     <use xlink:href="#m181ceae6a0" x="297.640726" y="34.524672" style="fill: #1f77b4; stroke: #1f77b4"/>
     <use xlink:href="#m181ceae6a0" x="313.035653" y="35.033591" style="fill: #1f77b4; stroke: #1f77b4"/>
     <use xlink:href="#m181ceae6a0" x="328.430917" y="35.575473" style="fill: #1f77b4; stroke: #1f77b4"/>
     <use xlink:href="#m181ceae6a0" x="343.827669" y="36.06275" style="fill: #1f77b4; stroke: #1f77b4"/>
     <use xlink:href="#m181ceae6a0" x="359.224523" y="36.417977" style="fill: #1f77b4; stroke: #1f77b4"/>
     <use xlink:href="#m181ceae6a0" x="374.621874" y="36.745" style="fill: #1f77b4; stroke: #1f77b4"/>
     <use xlink:href="#m181ceae6a0" x="390.019829" y="37.033046" style="fill: #1f77b4; stroke: #1f77b4"/>
     <use xlink:href="#m181ceae6a0" x="405.41696" y="37.151769" style="fill: #1f77b4; stroke: #1f77b4"/>
    </g>
   </g>
   <g id="line2d_28">
    <path d="M 80.762415 276.334125 
L 96.126463 276.317669 
L 111.49051 276.301212 
L 128.488825 269.904835 
L 143.824246 262.211007 
L 159.175892 249.871217 
L 174.538172 231.760836 
L 189.907646 206.764481 
L 205.282315 174.110481 
L 220.661114 132.938841 
L 236.043045 87.869048 
L 245.12 62.573672 
L 251.427909 50.095099 
L 266.814864 38.050313 
L 282.203218 35.338271 
L 297.593952 34.414125 
L 312.984585 34.671101 
L 328.377296 35.259891 
L 343.769029 35.697492 
L 359.163508 36.173471 
L 374.557295 36.44143 
L 389.951279 36.711644 
L 405.345454 37.000962 
" clip-path="url(#p67adb4684d)" style="fill: none; stroke: #ff7f0e; stroke-width: 1.5; stroke-linecap: square"/>
    <defs>
     <path id="me15aba60a6" d="M -3 3 
L 3 3 
L 3 -3 
L -3 -3 
z
" style="stroke: #ff7f0e; stroke-linejoin: miter"/>
    </defs>
    <g clip-path="url(#p67adb4684d)">
     <use xlink:href="#me15aba60a6" x="80.762415" y="276.334125" style="fill: #ff7f0e; stroke: #ff7f0e; stroke-linejoin: miter"/>
     <use xlink:href="#me15aba60a6" x="96.126463" y="276.317669" style="fill: #ff7f0e; stroke: #ff7f0e; stroke-linejoin: miter"/>
     <use xlink:href="#me15aba60a6" x="111.49051" y="276.301212" style="fill: #ff7f0e; stroke: #ff7f0e; stroke-linejoin: miter"/>
     <use xlink:href="#me15aba60a6" x="128.488825" y="269.904835" style="fill: #ff7f0e; stroke: #ff7f0e; stroke-linejoin: miter"/>
     <use xlink:href="#me15aba60a6" x="143.824246" y="262.211007" style="fill: #ff7f0e; stroke: #ff7f0e; stroke-linejoin: miter"/>
     <use xlink:href="#me15aba60a6" x="159.175892" y="249.871217" style="fill: #ff7f0e; stroke: #ff7f0e; stroke-linejoin: miter"/>
     <use xlink:href="#me15aba60a6" x="174.538172" y="231.760836" style="fill: #ff7f0e; stroke: #ff7f0e; stroke-linejoin: miter"/>
     <use xlink:href="#me15aba60a6" x="189.907646" y="206.764481" style="fill: #ff7f0e; stroke: #ff7f0e; stroke-linejoin: miter"/>
     <use xlink:href="#me15aba60a6" x="205.282315" y="174.110481" style="fill: #ff7f0e; stroke: #ff7f0e; stroke-linejoin: miter"/>
     <use xlink:href="#me15aba60a6" x="220.661114" y="132.938841" style="fill: #ff7f0e; stroke: #ff7f0e; stroke-linejoin: miter"/>
     <use xlink:href="#me15aba60a6" x="236.043045" y="87.869048" style="fill: #ff7f0e; stroke: #ff7f0e; stroke-linejoin: miter"/>
     <use xlink:href="#me15aba60a6" x="245.12" y="62.573672" style="fill: #ff7f0e; stroke: #ff7f0e; stroke-linejoin: miter"/>
     <use xlink:href="#me15aba60a6" x="251.427909" y="50.095099" style="fill: #ff7f0e; stroke: #ff7f0e; stroke-linejoin: miter"/>
     <use xlink:href="#me15aba60a6" x="266.814864" y="38.050313" style="fill: #ff7f0e; stroke: #ff7f0e; stroke-linejoin: miter"/>
     <use xlink:href="#me15aba60a6" x="282.203218" y="35.338271" style="fill: #ff7f0e; stroke: #ff7f0e; stroke-linejoin: miter"/>
     <use xlink:href="#me15aba60a6" x="297.593952" y="34.414125" style="fill: #ff7f0e; stroke: #ff7f0e; stroke-linejoin: miter"/>
     <use xlink:href="#me15aba60a6" x="312.984585" y="34.671101" style="fill: #ff7f0e; stroke: #ff7f0e; stroke-linejoin: miter"/>
     <use xlink:href="#me15aba60a6" x="328.377296" y="35.259891" style="fill: #ff7f0e; stroke: #ff7f0e; stroke-linejoin: miter"/>
     <use xlink:href="#me15aba60a6" x="343.769029" y="35.697492" style="fill: #ff7f0e; stroke: #ff7f0e; stroke-linejoin: miter"/>
     <use xlink:href="#me15aba60a6" x="359.163508" y="36.173471" style="fill: #ff7f0e; stroke: #ff7f0e; stroke-linejoin: miter"/>
     <use xlink:href="#me15aba60a6" x="374.557295" y="36.44143" style="fill: #ff7f0e; stroke: #ff7f0e; stroke-linejoin: miter"/>
     <use xlink:href="#me15aba60a6" x="389.951279" y="36.711644" style="fill: #ff7f0e; stroke: #ff7f0e; stroke-linejoin: miter"/>
     <use xlink:href="#me15aba60a6" x="405.345454" y="37.000962" style="fill: #ff7f0e; stroke: #ff7f0e; stroke-linejoin: miter"/>
    </g>
   </g>
   <g id="line2d_29">
    <path d="M 80.762415 276.334125 
L 96.126463 276.317669 
L 111.49051 276.301212 
L 128.498213 269.103876 
L 143.838522 260.389608 
L 159.194816 246.364175 
L 174.561837 225.67225 
L 189.935935 197.101149 
L 205.315381 159.795539 
L 220.698601 114.012589 
L 236.085473 67.305997 
L 245.165077 48.680041 
L 251.474867 42.227761 
L 266.86615 36.199416 
L 282.259468 34.608406 
L 297.654188 34.651222 
L 313.049976 35.181534 
L 328.446715 35.707531 
L 343.844303 36.183122 
L 359.242036 36.567372 
L 374.640688 36.875909 
L 390.03901 37.124797 
" clip-path="url(#p67adb4684d)" style="fill: none; stroke: #2ca02c; stroke-width: 1.5; stroke-linecap: square"/>
    <defs>
     <path id="mfda4e5701b" d="M 0 -3 
L -3 3 
L 3 3 
z
" style="stroke: #2ca02c; stroke-linejoin: miter"/>
    </defs>
    <g clip-path="url(#p67adb4684d)">
     <use xlink:href="#mfda4e5701b" x="80.762415" y="276.334125" style="fill: #2ca02c; stroke: #2ca02c; stroke-linejoin: miter"/>
     <use xlink:href="#mfda4e5701b" x="96.126463" y="276.317669" style="fill: #2ca02c; stroke: #2ca02c; stroke-linejoin: miter"/>
     <use xlink:href="#mfda4e5701b" x="111.49051" y="276.301212" style="fill: #2ca02c; stroke: #2ca02c; stroke-linejoin: miter"/>
     <use xlink:href="#mfda4e5701b" x="128.498213" y="269.103876" style="fill: #2ca02c; stroke: #2ca02c; stroke-linejoin: miter"/>
     <use xlink:href="#mfda4e5701b" x="143.838522" y="260.389608" style="fill: #2ca02c; stroke: #2ca02c; stroke-linejoin: miter"/>
     <use xlink:href="#mfda4e5701b" x="159.194816" y="246.364175" style="fill: #2ca02c; stroke: #2ca02c; stroke-linejoin: miter"/>
     <use xlink:href="#mfda4e5701b" x="174.561837" y="225.67225" style="fill: #2ca02c; stroke: #2ca02c; stroke-linejoin: miter"/>
     <use xlink:href="#mfda4e5701b" x="189.935935" y="197.101149" style="fill: #2ca02c; stroke: #2ca02c; stroke-linejoin: miter"/>
     <use xlink:href="#mfda4e5701b" x="205.315381" y="159.795539" style="fill: #2ca02c; stroke: #2ca02c; stroke-linejoin: miter"/>
     <use xlink:href="#mfda4e5701b" x="220.698601" y="114.012589" style="fill: #2ca02c; stroke: #2ca02c; stroke-linejoin: miter"/>
     <use xlink:href="#mfda4e5701b" x="236.085473" y="67.305997" style="fill: #2ca02c; stroke: #2ca02c; stroke-linejoin: miter"/>
     <use xlink:href="#mfda4e5701b" x="245.165077" y="48.680041" style="fill: #2ca02c; stroke: #2ca02c; stroke-linejoin: miter"/>
     <use xlink:href="#mfda4e5701b" x="251.474867" y="42.227761" style="fill: #2ca02c; stroke: #2ca02c; stroke-linejoin: miter"/>
     <use xlink:href="#mfda4e5701b" x="266.86615" y="36.199416" style="fill: #2ca02c; stroke: #2ca02c; stroke-linejoin: miter"/>
     <use xlink:href="#mfda4e5701b" x="282.259468" y="34.608406" style="fill: #2ca02c; stroke: #2ca02c; stroke-linejoin: miter"/>
     <use xlink:href="#mfda4e5701b" x="297.654188" y="34.651222" style="fill: #2ca02c; stroke: #2ca02c; stroke-linejoin: miter"/>
     <use xlink:href="#mfda4e5701b" x="313.049976" y="35.181534" style="fill: #2ca02c; stroke: #2ca02c; stroke-linejoin: miter"/>
     <use xlink:href="#mfda4e5701b" x="328.446715" y="35.707531" style="fill: #2ca02c; stroke: #2ca02c; stroke-linejoin: miter"/>
     <use xlink:href="#mfda4e5701b" x="343.844303" y="36.183122" style="fill: #2ca02c; stroke: #2ca02c; stroke-linejoin: miter"/>
     <use xlink:href="#mfda4e5701b" x="359.242036" y="36.567372" style="fill: #2ca02c; stroke: #2ca02c; stroke-linejoin: miter"/>
     <use xlink:href="#mfda4e5701b" x="374.640688" y="36.875909" style="fill: #2ca02c; stroke: #2ca02c; stroke-linejoin: miter"/>
     <use xlink:href="#mfda4e5701b" x="390.03901" y="37.124797" style="fill: #2ca02c; stroke: #2ca02c; stroke-linejoin: miter"/>
    </g>
   </g>
   <g id="line2d_30">
    <path d="M 80.762415 276.334125 
L 96.126463 276.317669 
L 111.49051 276.301212 
L 128.497677 269.069132 
L 143.837969 260.332699 
L 159.194576 246.249342 
L 174.561721 225.446924 
L 189.935876 196.78736 
L 205.315101 159.211798 
L 220.698438 113.351361 
L 236.085655 66.777233 
L 245.164847 48.363552 
L 251.474717 42.094846 
L 266.866356 36.124922 
L 282.259049 34.542162 
L 297.654169 34.649841 
L 313.050027 35.200618 
L 328.446997 35.739471 
L 343.845001 36.126971 
L 359.242999 36.617968 
L 374.641507 36.869684 
L 390.039873 37.171528 
" clip-path="url(#p67adb4684d)" style="fill: none; stroke: #d62728; stroke-width: 1.5; stroke-linecap: square"/>
    <defs>
     <path id="mec19ed7352" d="M 0 4.242641 
L 2.545584 0 
L 0 -4.242641 
L -2.545584 0 
z
" style="stroke: #d62728; stroke-linejoin: miter"/>
    </defs>
    <g clip-path="url(#p67adb4684d)">
     <use xlink:href="#mec19ed7352" x="80.762415" y="276.334125" style="fill: #d62728; stroke: #d62728; stroke-linejoin: miter"/>
     <use xlink:href="#mec19ed7352" x="96.126463" y="276.317669" style="fill: #d62728; stroke: #d62728; stroke-linejoin: miter"/>
     <use xlink:href="#mec19ed7352" x="111.49051" y="276.301212" style="fill: #d62728; stroke: #d62728; stroke-linejoin: miter"/>
     <use xlink:href="#mec19ed7352" x="128.497677" y="269.069132" style="fill: #d62728; stroke: #d62728; stroke-linejoin: miter"/>
     <use xlink:href="#mec19ed7352" x="143.837969" y="260.332699" style="fill: #d62728; stroke: #d62728; stroke-linejoin: miter"/>
     <use xlink:href="#mec19ed7352" x="159.194576" y="246.249342" style="fill: #d62728; stroke: #d62728; stroke-linejoin: miter"/>
     <use xlink:href="#mec19ed7352" x="174.561721" y="225.446924" style="fill: #d62728; stroke: #d62728; stroke-linejoin: miter"/>
     <use xlink:href="#mec19ed7352" x="189.935876" y="196.78736" style="fill: #d62728; stroke: #d62728; stroke-linejoin: miter"/>
     <use xlink:href="#mec19ed7352" x="205.315101" y="159.211798" style="fill: #d62728; stroke: #d62728; stroke-linejoin: miter"/>
     <use xlink:href="#mec19ed7352" x="220.698438" y="113.351361" style="fill: #d62728; stroke: #d62728; stroke-linejoin: miter"/>
     <use xlink:href="#mec19ed7352" x="236.085655" y="66.777233" style="fill: #d62728; stroke: #d62728; stroke-linejoin: miter"/>
     <use xlink:href="#mec19ed7352" x="245.164847" y="48.363552" style="fill: #d62728; stroke: #d62728; stroke-linejoin: miter"/>
     <use xlink:href="#mec19ed7352" x="251.474717" y="42.094846" style="fill: #d62728; stroke: #d62728; stroke-linejoin: miter"/>
     <use xlink:href="#mec19ed7352" x="266.866356" y="36.124922" style="fill: #d62728; stroke: #d62728; stroke-linejoin: miter"/>
     <use xlink:href="#mec19ed7352" x="282.259049" y="34.542162" style="fill: #d62728; stroke: #d62728; stroke-linejoin: miter"/>
     <use xlink:href="#mec19ed7352" x="297.654169" y="34.649841" style="fill: #d62728; stroke: #d62728; stroke-linejoin: miter"/>
     <use xlink:href="#mec19ed7352" x="313.050027" y="35.200618" style="fill: #d62728; stroke: #d62728; stroke-linejoin: miter"/>
     <use xlink:href="#mec19ed7352" x="328.446997" y="35.739471" style="fill: #d62728; stroke: #d62728; stroke-linejoin: miter"/>
     <use xlink:href="#mec19ed7352" x="343.845001" y="36.126971" style="fill: #d62728; stroke: #d62728; stroke-linejoin: miter"/>
     <use xlink:href="#mec19ed7352" x="359.242999" y="36.617968" style="fill: #d62728; stroke: #d62728; stroke-linejoin: miter"/>
     <use xlink:href="#mec19ed7352" x="374.641507" y="36.869684" style="fill: #d62728; stroke: #d62728; stroke-linejoin: miter"/>
     <use xlink:href="#mec19ed7352" x="390.039873" y="37.171528" style="fill: #d62728; stroke: #d62728; stroke-linejoin: miter"/>
    </g>
   </g>
   <g id="patch_3">
    <path d="M 64.529688 288.430125 
L 64.529688 22.318125 
" style="fill: none; stroke: #000000; stroke-width: 0.8; stroke-linejoin: miter; stroke-linecap: square"/>
   </g>
   <g id="patch_4">
    <path d="M 421.649688 288.430125 
L 421.649688 22.318125 
" style="fill: none; stroke: #000000; stroke-width: 0.8; stroke-linejoin: miter; stroke-linecap: square"/>
   </g>
   <g id="patch_5">
    <path d="M 64.529688 288.430125 
L 421.649688 288.430125 
" style="fill: none; stroke: #000000; stroke-width: 0.8; stroke-linejoin: miter; stroke-linecap: square"/>
   </g>
   <g id="patch_6">
    <path d="M 64.529688 22.318125 
L 421.649688 22.318125 
" style="fill: none; stroke: #000000; stroke-width: 0.8; stroke-linejoin: miter; stroke-linecap: square"/>
   </g>
   <g id="text_16">
    <!-- Power curve for High Turbulence Wind Veer Effect -->
    <g transform="translate(94.038438 16.318125) scale(0.12 -0.12)">
     <defs>
      <path id="DejaVuSans-76" d="M 191 3500 
L 800 3500 
L 1894 563 
L 2988 3500 
L 3597 3500 
L 2284 0 
L 1503 0 
L 191 3500 
z
" transform="scale(0.015625)"/>
      <path id="DejaVuSans-66" d="M 2375 4863 
L 2375 4384 
L 1825 4384 
Q 1516 4384 1395 4259 
Q 1275 4134 1275 3809 
L 1275 3500 
L 2222 3500 
L 2222 3053 
L 1275 3053 
L 1275 0 
L 697 0 
L 697 3053 
L 147 3053 
L 147 3500 
L 697 3500 
L 697 3744 
Q 697 4328 969 4595 
Q 1241 4863 1831 4863 
L 2375 4863 
z
" transform="scale(0.015625)"/>
      <path id="DejaVuSans-48" d="M 628 4666 
L 1259 4666 
L 1259 2753 
L 3553 2753 
L 3553 4666 
L 4184 4666 
L 4184 0 
L 3553 0 
L 3553 2222 
L 1259 2222 
L 1259 0 
L 628 0 
L 628 4666 
z
" transform="scale(0.015625)"/>
      <path id="DejaVuSans-67" d="M 2906 1791 
Q 2906 2416 2648 2759 
Q 2391 3103 1925 3103 
Q 1463 3103 1205 2759 
Q 947 2416 947 1791 
Q 947 1169 1205 825 
Q 1463 481 1925 481 
Q 2391 481 2648 825 
Q 2906 1169 2906 1791 
z
M 3481 434 
Q 3481 -459 3084 -895 
Q 2688 -1331 1869 -1331 
Q 1566 -1331 1297 -1286 
Q 1028 -1241 775 -1147 
L 775 -588 
Q 1028 -725 1275 -790 
Q 1522 -856 1778 -856 
Q 2344 -856 2625 -561 
Q 2906 -266 2906 331 
L 2906 616 
Q 2728 306 2450 153 
Q 2172 0 1784 0 
Q 1141 0 747 490 
Q 353 981 353 1791 
Q 353 2603 747 3093 
Q 1141 3584 1784 3584 
Q 2172 3584 2450 3431 
Q 2728 3278 2906 2969 
L 2906 3500 
L 3481 3500 
L 3481 434 
z
" transform="scale(0.015625)"/>
      <path id="DejaVuSans-68" d="M 3513 2113 
L 3513 0 
L 2938 0 
L 2938 2094 
Q 2938 2591 2744 2837 
Q 2550 3084 2163 3084 
Q 1697 3084 1428 2787 
Q 1159 2491 1159 1978 
L 1159 0 
L 581 0 
L 581 4863 
L 1159 4863 
L 1159 2956 
Q 1366 3272 1645 3428 
Q 1925 3584 2291 3584 
Q 2894 3584 3203 3211 
Q 3513 2838 3513 2113 
z
" transform="scale(0.015625)"/>
      <path id="DejaVuSans-54" d="M -19 4666 
L 3928 4666 
L 3928 4134 
L 2272 4134 
L 2272 0 
L 1638 0 
L 1638 4134 
L -19 4134 
L -19 4666 
z
" transform="scale(0.015625)"/>
      <path id="DejaVuSans-62" d="M 3116 1747 
Q 3116 2381 2855 2742 
Q 2594 3103 2138 3103 
Q 1681 3103 1420 2742 
Q 1159 2381 1159 1747 
Q 1159 1113 1420 752 
Q 1681 391 2138 391 
Q 2594 391 2855 752 
Q 3116 1113 3116 1747 
z
M 1159 2969 
Q 1341 3281 1617 3432 
Q 1894 3584 2278 3584 
Q 2916 3584 3314 3078 
Q 3713 2572 3713 1747 
Q 3713 922 3314 415 
Q 2916 -91 2278 -91 
Q 1894 -91 1617 61 
Q 1341 213 1159 525 
L 1159 0 
L 581 0 
L 581 4863 
L 1159 4863 
L 1159 2969 
z
" transform="scale(0.015625)"/>
      <path id="DejaVuSans-6e" d="M 3513 2113 
L 3513 0 
L 2938 0 
L 2938 2094 
Q 2938 2591 2744 2837 
Q 2550 3084 2163 3084 
Q 1697 3084 1428 2787 
Q 1159 2491 1159 1978 
L 1159 0 
L 581 0 
L 581 3500 
L 1159 3500 
L 1159 2956 
Q 1366 3272 1645 3428 
Q 1925 3584 2291 3584 
Q 2894 3584 3203 3211 
Q 3513 2838 3513 2113 
z
" transform="scale(0.015625)"/>
      <path id="DejaVuSans-45" d="M 628 4666 
L 3578 4666 
L 3578 4134 
L 1259 4134 
L 1259 2753 
L 3481 2753 
L 3481 2222 
L 1259 2222 
L 1259 531 
L 3634 531 
L 3634 0 
L 628 0 
L 628 4666 
z
" transform="scale(0.015625)"/>
     </defs>
     <use xlink:href="#DejaVuSans-50"/>
     <use xlink:href="#DejaVuSans-6f" x="56.677734"/>
     <use xlink:href="#DejaVuSans-77" x="117.859375"/>
     <use xlink:href="#DejaVuSans-65" x="199.646484"/>
     <use xlink:href="#DejaVuSans-72" x="261.169922"/>
     <use xlink:href="#DejaVuSans-20" x="302.283203"/>
     <use xlink:href="#DejaVuSans-63" x="334.070312"/>
     <use xlink:href="#DejaVuSans-75" x="389.050781"/>
     <use xlink:href="#DejaVuSans-72" x="452.429688"/>
     <use xlink:href="#DejaVuSans-76" x="493.542969"/>
     <use xlink:href="#DejaVuSans-65" x="552.722656"/>
     <use xlink:href="#DejaVuSans-20" x="614.246094"/>
     <use xlink:href="#DejaVuSans-66" x="646.033203"/>
     <use xlink:href="#DejaVuSans-6f" x="681.238281"/>
     <use xlink:href="#DejaVuSans-72" x="742.419922"/>
     <use xlink:href="#DejaVuSans-20" x="783.533203"/>
     <use xlink:href="#DejaVuSans-48" x="815.320312"/>
     <use xlink:href="#DejaVuSans-69" x="890.515625"/>
     <use xlink:href="#DejaVuSans-67" x="918.298828"/>
     <use xlink:href="#DejaVuSans-68" x="981.775391"/>
     <use xlink:href="#DejaVuSans-20" x="1045.154297"/>
     <use xlink:href="#DejaVuSans-54" x="1076.941406"/>
     <use xlink:href="#DejaVuSans-75" x="1122.900391"/>
     <use xlink:href="#DejaVuSans-72" x="1186.279297"/>
     <use xlink:href="#DejaVuSans-62" x="1227.392578"/>
     <use xlink:href="#DejaVuSans-75" x="1290.869141"/>
     <use xlink:href="#DejaVuSans-6c" x="1354.248047"/>
     <use xlink:href="#DejaVuSans-65" x="1382.03125"/>
     <use xlink:href="#DejaVuSans-6e" x="1443.554688"/>
     <use xlink:href="#DejaVuSans-63" x="1506.933594"/>
     <use xlink:href="#DejaVuSans-65" x="1561.914062"/>
     <use xlink:href="#DejaVuSans-20" x="1623.4375"/>
     <use xlink:href="#DejaVuSans-57" x="1655.224609"/>
     <use xlink:href="#DejaVuSans-69" x="1751.851562"/>
     <use xlink:href="#DejaVuSans-6e" x="1779.634766"/>
     <use xlink:href="#DejaVuSans-64" x="1843.013672"/>
     <use xlink:href="#DejaVuSans-20" x="1906.490234"/>
     <use xlink:href="#DejaVuSans-56" x="1938.277344"/>
     <use xlink:href="#DejaVuSans-65" x="1998.935547"/>
     <use xlink:href="#DejaVuSans-65" x="2060.458984"/>
     <use xlink:href="#DejaVuSans-72" x="2121.982422"/>
     <use xlink:href="#DejaVuSans-20" x="2163.095703"/>
     <use xlink:href="#DejaVuSans-45" x="2194.882812"/>
     <use xlink:href="#DejaVuSans-66" x="2258.066406"/>
     <use xlink:href="#DejaVuSans-66" x="2293.271484"/>
     <use xlink:href="#DejaVuSans-65" x="2328.476562"/>
     <use xlink:href="#DejaVuSans-63" x="2390"/>
     <use xlink:href="#DejaVuSans-74" x="2444.980469"/>
    </g>
   </g>
   <g id="legend_1">
    <g id="patch_7">
     <path d="M 71.529688 89.865 
L 214.425 89.865 
Q 216.425 89.865 216.425 87.865 
L 216.425 29.318125 
Q 216.425 27.318125 214.425 27.318125 
L 71.529688 27.318125 
Q 69.529688 27.318125 69.529688 29.318125 
L 69.529688 87.865 
Q 69.529688 89.865 71.529688 89.865 
z
" style="fill: #ffffff; opacity: 0.8; stroke: #cccccc; stroke-linejoin: miter"/>
    </g>
    <g id="line2d_31">
     <path d="M 73.529688 35.416562 
L 83.529688 35.416562 
L 93.529688 35.416562 
" style="fill: none; stroke: #1f77b4; stroke-width: 1.5; stroke-linecap: square"/>
     <g>
      <use xlink:href="#m181ceae6a0" x="83.529688" y="35.416562" style="fill: #1f77b4; stroke: #1f77b4"/>
     </g>
    </g>
    <g id="text_17">
     <!-- noshear_TIA_veer0.2 -->
     <g transform="translate(101.529688 38.916562) scale(0.1 -0.1)">
      <defs>
       <path id="DejaVuSans-73" d="M 2834 3397 
L 2834 2853 
Q 2591 2978 2328 3040 
Q 2066 3103 1784 3103 
Q 1356 3103 1142 2972 
Q 928 2841 928 2578 
Q 928 2378 1081 2264 
Q 1234 2150 1697 2047 
L 1894 2003 
Q 2506 1872 2764 1633 
Q 3022 1394 3022 966 
Q 3022 478 2636 193 
Q 2250 -91 1575 -91 
Q 1294 -91 989 -36 
Q 684 19 347 128 
L 347 722 
Q 666 556 975 473 
Q 1284 391 1588 391 
Q 1994 391 2212 530 
Q 2431 669 2431 922 
Q 2431 1156 2273 1281 
Q 2116 1406 1581 1522 
L 1381 1569 
Q 847 1681 609 1914 
Q 372 2147 372 2553 
Q 372 3047 722 3315 
Q 1072 3584 1716 3584 
Q 2034 3584 2315 3537 
Q 2597 3491 2834 3397 
z
" transform="scale(0.015625)"/>
       <path id="DejaVuSans-61" d="M 2194 1759 
Q 1497 1759 1228 1600 
Q 959 1441 959 1056 
Q 959 750 1161 570 
Q 1363 391 1709 391 
Q 2188 391 2477 730 
Q 2766 1069 2766 1631 
L 2766 1759 
L 2194 1759 
z
M 3341 1997 
L 3341 0 
L 2766 0 
L 2766 531 
Q 2569 213 2275 61 
Q 1981 -91 1556 -91 
Q 1019 -91 701 211 
Q 384 513 384 1019 
Q 384 1609 779 1909 
Q 1175 2209 1959 2209 
L 2766 2209 
L 2766 2266 
Q 2766 2663 2505 2880 
Q 2244 3097 1772 3097 
Q 1472 3097 1187 3025 
Q 903 2953 641 2809 
L 641 3341 
Q 956 3463 1253 3523 
Q 1550 3584 1831 3584 
Q 2591 3584 2966 3190 
Q 3341 2797 3341 1997 
z
" transform="scale(0.015625)"/>
       <path id="DejaVuSans-5f" d="M 3263 -1063 
L 3263 -1509 
L -63 -1509 
L -63 -1063 
L 3263 -1063 
z
" transform="scale(0.015625)"/>
       <path id="DejaVuSans-49" d="M 628 4666 
L 1259 4666 
L 1259 0 
L 628 0 
L 628 4666 
z
" transform="scale(0.015625)"/>
       <path id="DejaVuSans-41" d="M 2188 4044 
L 1331 1722 
L 3047 1722 
L 2188 4044 
z
M 1831 4666 
L 2547 4666 
L 4325 0 
L 3669 0 
L 3244 1197 
L 1141 1197 
L 716 0 
L 50 0 
L 1831 4666 
z
" transform="scale(0.015625)"/>
       <path id="DejaVuSans-2e" d="M 684 794 
L 1344 794 
L 1344 0 
L 684 0 
L 684 794 
z
" transform="scale(0.015625)"/>
      </defs>
      <use xlink:href="#DejaVuSans-6e"/>
      <use xlink:href="#DejaVuSans-6f" x="63.378906"/>
      <use xlink:href="#DejaVuSans-73" x="124.560547"/>
      <use xlink:href="#DejaVuSans-68" x="176.660156"/>
      <use xlink:href="#DejaVuSans-65" x="240.039062"/>
      <use xlink:href="#DejaVuSans-61" x="301.5625"/>
      <use xlink:href="#DejaVuSans-72" x="362.841797"/>
      <use xlink:href="#DejaVuSans-5f" x="403.955078"/>
      <use xlink:href="#DejaVuSans-54" x="453.955078"/>
      <use xlink:href="#DejaVuSans-49" x="515.039062"/>
      <use xlink:href="#DejaVuSans-41" x="544.53125"/>
      <use xlink:href="#DejaVuSans-5f" x="612.939453"/>
      <use xlink:href="#DejaVuSans-76" x="662.939453"/>
      <use xlink:href="#DejaVuSans-65" x="722.119141"/>
      <use xlink:href="#DejaVuSans-65" x="783.642578"/>
      <use xlink:href="#DejaVuSans-72" x="845.166016"/>
      <use xlink:href="#DejaVuSans-30" x="886.279297"/>
      <use xlink:href="#DejaVuSans-2e" x="949.902344"/>
      <use xlink:href="#DejaVuSans-32" x="981.689453"/>
     </g>
    </g>
    <g id="line2d_32">
     <path d="M 73.529688 50.372812 
L 83.529688 50.372812 
L 93.529688 50.372812 
" style="fill: none; stroke: #ff7f0e; stroke-width: 1.5; stroke-linecap: square"/>
     <g>
      <use xlink:href="#me15aba60a6" x="83.529688" y="50.372812" style="fill: #ff7f0e; stroke: #ff7f0e; stroke-linejoin: miter"/>
     </g>
    </g>
    <g id="text_18">
     <!-- noshear_TIA_veer0.4 -->
     <g transform="translate(101.529688 53.872812) scale(0.1 -0.1)">
      <use xlink:href="#DejaVuSans-6e"/>
      <use xlink:href="#DejaVuSans-6f" x="63.378906"/>
      <use xlink:href="#DejaVuSans-73" x="124.560547"/>
      <use xlink:href="#DejaVuSans-68" x="176.660156"/>
      <use xlink:href="#DejaVuSans-65" x="240.039062"/>
      <use xlink:href="#DejaVuSans-61" x="301.5625"/>
      <use xlink:href="#DejaVuSans-72" x="362.841797"/>
      <use xlink:href="#DejaVuSans-5f" x="403.955078"/>
      <use xlink:href="#DejaVuSans-54" x="453.955078"/>
      <use xlink:href="#DejaVuSans-49" x="515.039062"/>
      <use xlink:href="#DejaVuSans-41" x="544.53125"/>
      <use xlink:href="#DejaVuSans-5f" x="612.939453"/>
      <use xlink:href="#DejaVuSans-76" x="662.939453"/>
      <use xlink:href="#DejaVuSans-65" x="722.119141"/>
      <use xlink:href="#DejaVuSans-65" x="783.642578"/>
      <use xlink:href="#DejaVuSans-72" x="845.166016"/>
      <use xlink:href="#DejaVuSans-30" x="886.279297"/>
      <use xlink:href="#DejaVuSans-2e" x="949.902344"/>
      <use xlink:href="#DejaVuSans-34" x="981.689453"/>
     </g>
    </g>
    <g id="line2d_33">
     <path d="M 73.529688 65.329062 
L 83.529688 65.329062 
L 93.529688 65.329062 
" style="fill: none; stroke: #2ca02c; stroke-width: 1.5; stroke-linecap: square"/>
     <g>
      <use xlink:href="#mfda4e5701b" x="83.529688" y="65.329062" style="fill: #2ca02c; stroke: #2ca02c; stroke-linejoin: miter"/>
     </g>
    </g>
    <g id="text_19">
     <!-- noshear_TIA_veer0.05 -->
     <g transform="translate(101.529688 68.829062) scale(0.1 -0.1)">
      <use xlink:href="#DejaVuSans-6e"/>
      <use xlink:href="#DejaVuSans-6f" x="63.378906"/>
      <use xlink:href="#DejaVuSans-73" x="124.560547"/>
      <use xlink:href="#DejaVuSans-68" x="176.660156"/>
      <use xlink:href="#DejaVuSans-65" x="240.039062"/>
      <use xlink:href="#DejaVuSans-61" x="301.5625"/>
      <use xlink:href="#DejaVuSans-72" x="362.841797"/>
      <use xlink:href="#DejaVuSans-5f" x="403.955078"/>
      <use xlink:href="#DejaVuSans-54" x="453.955078"/>
      <use xlink:href="#DejaVuSans-49" x="515.039062"/>
      <use xlink:href="#DejaVuSans-41" x="544.53125"/>
      <use xlink:href="#DejaVuSans-5f" x="612.939453"/>
      <use xlink:href="#DejaVuSans-76" x="662.939453"/>
      <use xlink:href="#DejaVuSans-65" x="722.119141"/>
      <use xlink:href="#DejaVuSans-65" x="783.642578"/>
      <use xlink:href="#DejaVuSans-72" x="845.166016"/>
      <use xlink:href="#DejaVuSans-30" x="886.279297"/>
      <use xlink:href="#DejaVuSans-2e" x="949.902344"/>
      <use xlink:href="#DejaVuSans-30" x="981.689453"/>
      <use xlink:href="#DejaVuSans-35" x="1045.3125"/>
     </g>
    </g>
    <g id="line2d_34">
     <path d="M 73.529688 80.285312 
L 83.529688 80.285312 
L 93.529688 80.285312 
" style="fill: none; stroke: #d62728; stroke-width: 1.5; stroke-linecap: square"/>
     <g>
      <use xlink:href="#mec19ed7352" x="83.529688" y="80.285312" style="fill: #d62728; stroke: #d62728; stroke-linejoin: miter"/>
     </g>
    </g>
    <g id="text_20">
     <!-- TIA -->
     <g transform="translate(101.529688 83.785312) scale(0.1 -0.1)">
      <use xlink:href="#DejaVuSans-54"/>
      <use xlink:href="#DejaVuSans-49" x="61.083984"/>
      <use xlink:href="#DejaVuSans-41" x="90.576172"/>
     </g>
    </g>
   </g>
  </g>
 </g>
 <defs>
  <clipPath id="p67adb4684d">
   <rect x="64.529688" y="22.318125" width="357.12" height="266.112"/>
  </clipPath>
 </defs>
</svg>
