<?xml version="1.0" encoding="utf-8" standalone="no"?>
<!DOCTYPE svg PUBLIC "-//W3C//DTD SVG 1.1//EN"
  "http://www.w3.org/Graphics/SVG/1.1/DTD/svg11.dtd">
<svg xmlns:xlink="http://www.w3.org/1999/xlink" width="428.849687pt" height="333.10825pt" viewBox="0 0 428.849687 333.10825" xmlns="http://www.w3.org/2000/svg" version="1.1">
 <metadata>
  <rdf:RDF xmlns:dc="http://purl.org/dc/elements/1.1/" xmlns:cc="http://creativecommons.org/ns#" xmlns:rdf="http://www.w3.org/1999/02/22-rdf-syntax-ns#">
   <cc:Work>
    <dc:type rdf:resource="http://purl.org/dc/dcmitype/StillImage"/>
    <dc:date>2025-03-27T16:41:32.598264</dc:date>
    <dc:format>image/svg+xml</dc:format>
    <dc:creator>
     <cc:Agent>
      <dc:title>Matplotlib v3.9.0, https://matplotlib.org/</dc:title>
     </cc:Agent>
    </dc:creator>
   </cc:Work>
  </rdf:RDF>
 </metadata>
 <defs>
  <style type="text/css">*{stroke-linejoin: round; stroke-linecap: butt}</style>
 </defs>
 <g id="figure_1">
  <g id="patch_1">
   <path d="M 0 333.10825 
L 428.849687 333.10825 
L 428.849687 0 
L 0 0 
z
" style="fill: #ffffff"/>
  </g>
  <g id="axes_1">
   <g id="patch_2">
    <path d="M 64.529688 288.430125 
L 421.649688 288.430125 
L 421.649688 22.318125 
L 64.529688 22.318125 
z
" style="fill: #ffffff"/>
   </g>
   <g id="matplotlib.axis_1">
    <g id="xtick_1">
     <g id="line2d_1">
      <path d="M 80.762415 288.430125 
L 80.762415 22.318125 
" clip-path="url(#p326f70b801)" style="fill: none; stroke: #b0b0b0; stroke-width: 0.8; stroke-linecap: square"/>
     </g>
     <g id="line2d_2">
      <defs>
       <path id="m4da35aa731" d="M 0 0 
L 0 3.5 
" style="stroke: #000000; stroke-width: 0.8"/>
      </defs>
      <g>
       <use xlink:href="#m4da35aa731" x="80.762415" y="288.430125" style="stroke: #000000; stroke-width: 0.8"/>
      </g>
     </g>
     <g id="text_1">
      <!-- 0 -->
      <g transform="translate(77.581165 303.028562) scale(0.1 -0.1)">
       <defs>
        <path id="DejaVuSans-30" d="M 2034 4250 
Q 1547 4250 1301 3770 
Q 1056 3291 1056 2328 
Q 1056 1369 1301 889 
Q 1547 409 2034 409 
Q 2525 409 2770 889 
Q 3016 1369 3016 2328 
Q 3016 3291 2770 3770 
Q 2525 4250 2034 4250 
z
M 2034 4750 
Q 2819 4750 3233 4129 
Q 3647 3509 3647 2328 
Q 3647 1150 3233 529 
Q 2819 -91 2034 -91 
Q 1250 -91 836 529 
Q 422 1150 422 2328 
Q 422 3509 836 4129 
Q 1250 4750 2034 4750 
z
" transform="scale(0.015625)"/>
       </defs>
       <use xlink:href="#DejaVuSans-30"/>
      </g>
     </g>
    </g>
    <g id="xtick_2">
     <g id="line2d_3">
      <path d="M 157.703106 288.430125 
L 157.703106 22.318125 
" clip-path="url(#p326f70b801)" style="fill: none; stroke: #b0b0b0; stroke-width: 0.8; stroke-linecap: square"/>
     </g>
     <g id="line2d_4">
      <g>
       <use xlink:href="#m4da35aa731" x="157.703106" y="288.430125" style="stroke: #000000; stroke-width: 0.8"/>
      </g>
     </g>
     <g id="text_2">
      <!-- 5 -->
      <g transform="translate(154.521856 303.028562) scale(0.1 -0.1)">
       <defs>
        <path id="DejaVuSans-35" d="M 691 4666 
L 3169 4666 
L 3169 4134 
L 1269 4134 
L 1269 2991 
Q 1406 3038 1543 3061 
Q 1681 3084 1819 3084 
Q 2600 3084 3056 2656 
Q 3513 2228 3513 1497 
Q 3513 744 3044 326 
Q 2575 -91 1722 -91 
Q 1428 -91 1123 -41 
Q 819 9 494 109 
L 494 744 
Q 775 591 1075 516 
Q 1375 441 1709 441 
Q 2250 441 2565 725 
Q 2881 1009 2881 1497 
Q 2881 1984 2565 2268 
Q 2250 2553 1709 2553 
Q 1456 2553 1204 2497 
Q 953 2441 691 2322 
L 691 4666 
z
" transform="scale(0.015625)"/>
       </defs>
       <use xlink:href="#DejaVuSans-35"/>
      </g>
     </g>
    </g>
    <g id="xtick_3">
     <g id="line2d_5">
      <path d="M 234.643796 288.430125 
L 234.643796 22.318125 
" clip-path="url(#p326f70b801)" style="fill: none; stroke: #b0b0b0; stroke-width: 0.8; stroke-linecap: square"/>
     </g>
     <g id="line2d_6">
      <g>
       <use xlink:href="#m4da35aa731" x="234.643796" y="288.430125" style="stroke: #000000; stroke-width: 0.8"/>
      </g>
     </g>
     <g id="text_3">
      <!-- 10 -->
      <g transform="translate(228.281296 303.028562) scale(0.1 -0.1)">
       <defs>
        <path id="DejaVuSans-31" d="M 794 531 
L 1825 531 
L 1825 4091 
L 703 3866 
L 703 4441 
L 1819 4666 
L 2450 4666 
L 2450 531 
L 3481 531 
L 3481 0 
L 794 0 
L 794 531 
z
" transform="scale(0.015625)"/>
       </defs>
       <use xlink:href="#DejaVuSans-31"/>
       <use xlink:href="#DejaVuSans-30" x="63.623047"/>
      </g>
     </g>
    </g>
    <g id="xtick_4">
     <g id="line2d_7">
      <path d="M 311.584487 288.430125 
L 311.584487 22.318125 
" clip-path="url(#p326f70b801)" style="fill: none; stroke: #b0b0b0; stroke-width: 0.8; stroke-linecap: square"/>
     </g>
     <g id="line2d_8">
      <g>
       <use xlink:href="#m4da35aa731" x="311.584487" y="288.430125" style="stroke: #000000; stroke-width: 0.8"/>
      </g>
     </g>
     <g id="text_4">
      <!-- 15 -->
      <g transform="translate(305.221987 303.028562) scale(0.1 -0.1)">
       <use xlink:href="#DejaVuSans-31"/>
       <use xlink:href="#DejaVuSans-35" x="63.623047"/>
      </g>
     </g>
    </g>
    <g id="xtick_5">
     <g id="line2d_9">
      <path d="M 388.525178 288.430125 
L 388.525178 22.318125 
" clip-path="url(#p326f70b801)" style="fill: none; stroke: #b0b0b0; stroke-width: 0.8; stroke-linecap: square"/>
     </g>
     <g id="line2d_10">
      <g>
       <use xlink:href="#m4da35aa731" x="388.525178" y="288.430125" style="stroke: #000000; stroke-width: 0.8"/>
      </g>
     </g>
     <g id="text_5">
      <!-- 20 -->
      <g transform="translate(382.162678 303.028562) scale(0.1 -0.1)">
       <defs>
        <path id="DejaVuSans-32" d="M 1228 531 
L 3431 531 
L 3431 0 
L 469 0 
L 469 531 
Q 828 903 1448 1529 
Q 2069 2156 2228 2338 
Q 2531 2678 2651 2914 
Q 2772 3150 2772 3378 
Q 2772 3750 2511 3984 
Q 2250 4219 1831 4219 
Q 1534 4219 1204 4116 
Q 875 4013 500 3803 
L 500 4441 
Q 881 4594 1212 4672 
Q 1544 4750 1819 4750 
Q 2544 4750 2975 4387 
Q 3406 4025 3406 3419 
Q 3406 3131 3298 2873 
Q 3191 2616 2906 2266 
Q 2828 2175 2409 1742 
Q 1991 1309 1228 531 
z
" transform="scale(0.015625)"/>
       </defs>
       <use xlink:href="#DejaVuSans-32"/>
       <use xlink:href="#DejaVuSans-30" x="63.623047"/>
      </g>
     </g>
    </g>
    <g id="text_6">
     <!-- Velocity $\left[\frac{\mathit{m}}{\mathit{s}}\right]$ -->
     <g transform="translate(199.439688 321.70825) scale(0.15 -0.15)">
      <defs>
       <path id="DejaVuSans-56" d="M 1831 0 
L 50 4666 
L 709 4666 
L 2188 738 
L 3669 4666 
L 4325 4666 
L 2547 0 
L 1831 0 
z
" transform="scale(0.015625)"/>
       <path id="DejaVuSans-65" d="M 3597 1894 
L 3597 1613 
L 953 1613 
Q 991 1019 1311 708 
Q 1631 397 2203 397 
Q 2534 397 2845 478 
Q 3156 559 3463 722 
L 3463 178 
Q 3153 47 2828 -22 
Q 2503 -91 2169 -91 
Q 1331 -91 842 396 
Q 353 884 353 1716 
Q 353 2575 817 3079 
Q 1281 3584 2069 3584 
Q 2775 3584 3186 3129 
Q 3597 2675 3597 1894 
z
M 3022 2063 
Q 3016 2534 2758 2815 
Q 2500 3097 2075 3097 
Q 1594 3097 1305 2825 
Q 1016 2553 972 2059 
L 3022 2063 
z
" transform="scale(0.015625)"/>
       <path id="DejaVuSans-6c" d="M 603 4863 
L 1178 4863 
L 1178 0 
L 603 0 
L 603 4863 
z
" transform="scale(0.015625)"/>
       <path id="DejaVuSans-6f" d="M 1959 3097 
Q 1497 3097 1228 2736 
Q 959 2375 959 1747 
Q 959 1119 1226 758 
Q 1494 397 1959 397 
Q 2419 397 2687 759 
Q 2956 1122 2956 1747 
Q 2956 2369 2687 2733 
Q 2419 3097 1959 3097 
z
M 1959 3584 
Q 2709 3584 3137 3096 
Q 3566 2609 3566 1747 
Q 3566 888 3137 398 
Q 2709 -91 1959 -91 
Q 1206 -91 779 398 
Q 353 888 353 1747 
Q 353 2609 779 3096 
Q 1206 3584 1959 3584 
z
" transform="scale(0.015625)"/>
       <path id="DejaVuSans-63" d="M 3122 3366 
L 3122 2828 
Q 2878 2963 2633 3030 
Q 2388 3097 2138 3097 
Q 1578 3097 1268 2742 
Q 959 2388 959 1747 
Q 959 1106 1268 751 
Q 1578 397 2138 397 
Q 2388 397 2633 464 
Q 2878 531 3122 666 
L 3122 134 
Q 2881 22 2623 -34 
Q 2366 -91 2075 -91 
Q 1284 -91 818 406 
Q 353 903 353 1747 
Q 353 2603 823 3093 
Q 1294 3584 2113 3584 
Q 2378 3584 2631 3529 
Q 2884 3475 3122 3366 
z
" transform="scale(0.015625)"/>
       <path id="DejaVuSans-69" d="M 603 3500 
L 1178 3500 
L 1178 0 
L 603 0 
L 603 3500 
z
M 603 4863 
L 1178 4863 
L 1178 4134 
L 603 4134 
L 603 4863 
z
" transform="scale(0.015625)"/>
       <path id="DejaVuSans-74" d="M 1172 4494 
L 1172 3500 
L 2356 3500 
L 2356 3053 
L 1172 3053 
L 1172 1153 
Q 1172 725 1289 603 
Q 1406 481 1766 481 
L 2356 481 
L 2356 0 
L 1766 0 
Q 1100 0 847 248 
Q 594 497 594 1153 
L 594 3053 
L 172 3053 
L 172 3500 
L 594 3500 
L 594 4494 
L 1172 4494 
z
" transform="scale(0.015625)"/>
       <path id="DejaVuSans-79" d="M 2059 -325 
Q 1816 -950 1584 -1140 
Q 1353 -1331 966 -1331 
L 506 -1331 
L 506 -850 
L 844 -850 
Q 1081 -850 1212 -737 
Q 1344 -625 1503 -206 
L 1606 56 
L 191 3500 
L 800 3500 
L 1894 763 
L 2988 3500 
L 3597 3500 
L 2059 -325 
z
" transform="scale(0.015625)"/>
       <path id="DejaVuSans-20" transform="scale(0.015625)"/>
       <path id="STIXSizeOneSym-Regular-5b" d="M 2323 -1050 
L 1152 -1050 
L 1152 6822 
L 2323 6822 
L 2323 6611 
L 1600 6611 
L 1600 -838 
L 2323 -838 
L 2323 -1050 
z
" transform="scale(0.015625)"/>
       <path id="DejaVuSans-Oblique-6d" d="M 5747 2113 
L 5338 0 
L 4763 0 
L 5166 2094 
Q 5191 2228 5203 2325 
Q 5216 2422 5216 2491 
Q 5216 2772 5059 2928 
Q 4903 3084 4622 3084 
Q 4203 3084 3875 2770 
Q 3547 2456 3450 1953 
L 3066 0 
L 2491 0 
L 2900 2094 
Q 2925 2209 2937 2307 
Q 2950 2406 2950 2484 
Q 2950 2769 2794 2926 
Q 2638 3084 2363 3084 
Q 1938 3084 1609 2770 
Q 1281 2456 1184 1953 
L 800 0 
L 225 0 
L 909 3500 
L 1484 3500 
L 1375 2956 
Q 1609 3263 1923 3423 
Q 2238 3584 2597 3584 
Q 2978 3584 3223 3384 
Q 3469 3184 3519 2828 
Q 3781 3197 4126 3390 
Q 4472 3584 4856 3584 
Q 5306 3584 5551 3325 
Q 5797 3066 5797 2591 
Q 5797 2488 5784 2364 
Q 5772 2241 5747 2113 
z
" transform="scale(0.015625)"/>
       <path id="DejaVuSans-Oblique-73" d="M 3200 3397 
L 3091 2853 
Q 2863 2978 2609 3040 
Q 2356 3103 2088 3103 
Q 1634 3103 1373 2948 
Q 1113 2794 1113 2528 
Q 1113 2219 1719 2053 
Q 1766 2041 1788 2034 
L 1972 1978 
Q 2547 1819 2739 1644 
Q 2931 1469 2931 1166 
Q 2931 609 2489 259 
Q 2047 -91 1331 -91 
Q 1053 -91 747 -37 
Q 441 16 72 128 
L 184 722 
Q 500 559 806 475 
Q 1113 391 1394 391 
Q 1816 391 2080 572 
Q 2344 753 2344 1031 
Q 2344 1331 1650 1516 
L 1591 1531 
L 1394 1581 
Q 956 1697 753 1886 
Q 550 2075 550 2369 
Q 550 2928 970 3256 
Q 1391 3584 2113 3584 
Q 2397 3584 2667 3537 
Q 2938 3491 3200 3397 
z
" transform="scale(0.015625)"/>
       <path id="STIXSizeOneSym-Regular-5d" d="M 1299 -1050 
L 128 -1050 
L 128 -838 
L 851 -838 
L 851 6611 
L 128 6611 
L 128 6822 
L 1299 6822 
L 1299 -1050 
z
" transform="scale(0.015625)"/>
      </defs>
      <use xlink:href="#DejaVuSans-56" transform="translate(0 0.945312)"/>
      <use xlink:href="#DejaVuSans-65" transform="translate(68.408203 0.945312)"/>
      <use xlink:href="#DejaVuSans-6c" transform="translate(129.931641 0.945312)"/>
      <use xlink:href="#DejaVuSans-6f" transform="translate(157.714844 0.945312)"/>
      <use xlink:href="#DejaVuSans-63" transform="translate(218.896484 0.945312)"/>
      <use xlink:href="#DejaVuSans-69" transform="translate(273.876953 0.945312)"/>
      <use xlink:href="#DejaVuSans-74" transform="translate(301.660156 0.945312)"/>
      <use xlink:href="#DejaVuSans-79" transform="translate(340.869141 0.945312)"/>
      <use xlink:href="#DejaVuSans-20" transform="translate(400.048828 0.945312)"/>
      <use xlink:href="#STIXSizeOneSym-Regular-5b" transform="translate(431.835938 -11.9375) scale(0.899555)"/>
      <use xlink:href="#DejaVuSans-Oblique-6d" transform="translate(466.305939 44.742187) scale(0.7)"/>
      <use xlink:href="#DejaVuSans-Oblique-73" transform="translate(482.305939 -25.707813) scale(0.7)"/>
      <use xlink:href="#STIXSizeOneSym-Regular-5d" transform="translate(546.994415 -11.9375) scale(0.899555)"/>
      <path d="M 466.305939 19.742188 
L 466.305939 25.992187 
L 534.494415 25.992187 
L 534.494415 19.742188 
L 466.305939 19.742188 
z
"/>
     </g>
    </g>
   </g>
   <g id="matplotlib.axis_2">
    <g id="ytick_1">
     <g id="line2d_11">
      <path d="M 64.529688 276.334125 
L 421.649688 276.334125 
" clip-path="url(#p326f70b801)" style="fill: none; stroke: #b0b0b0; stroke-width: 0.8; stroke-linecap: square"/>
     </g>
     <g id="line2d_12">
      <defs>
       <path id="m1bfc5a02a1" d="M 0 0 
L -3.5 0 
" style="stroke: #000000; stroke-width: 0.8"/>
      </defs>
      <g>
       <use xlink:href="#m1bfc5a02a1" x="64.529688" y="276.334125" style="stroke: #000000; stroke-width: 0.8"/>
      </g>
     </g>
     <g id="text_7">
      <!-- 0 -->
      <g transform="translate(51.167188 280.133344) scale(0.1 -0.1)">
       <use xlink:href="#DejaVuSans-30"/>
      </g>
     </g>
    </g>
    <g id="ytick_2">
     <g id="line2d_13">
      <path d="M 64.529688 243.365171 
L 421.649688 243.365171 
" clip-path="url(#p326f70b801)" style="fill: none; stroke: #b0b0b0; stroke-width: 0.8; stroke-linecap: square"/>
     </g>
     <g id="line2d_14">
      <g>
       <use xlink:href="#m1bfc5a02a1" x="64.529688" y="243.365171" style="stroke: #000000; stroke-width: 0.8"/>
      </g>
     </g>
     <g id="text_8">
      <!-- 2000 -->
      <g transform="translate(32.079688 247.16439) scale(0.1 -0.1)">
       <use xlink:href="#DejaVuSans-32"/>
       <use xlink:href="#DejaVuSans-30" x="63.623047"/>
       <use xlink:href="#DejaVuSans-30" x="127.246094"/>
       <use xlink:href="#DejaVuSans-30" x="190.869141"/>
      </g>
     </g>
    </g>
    <g id="ytick_3">
     <g id="line2d_15">
      <path d="M 64.529688 210.396217 
L 421.649688 210.396217 
" clip-path="url(#p326f70b801)" style="fill: none; stroke: #b0b0b0; stroke-width: 0.8; stroke-linecap: square"/>
     </g>
     <g id="line2d_16">
      <g>
       <use xlink:href="#m1bfc5a02a1" x="64.529688" y="210.396217" style="stroke: #000000; stroke-width: 0.8"/>
      </g>
     </g>
     <g id="text_9">
      <!-- 4000 -->
      <g transform="translate(32.079688 214.195435) scale(0.1 -0.1)">
       <defs>
        <path id="DejaVuSans-34" d="M 2419 4116 
L 825 1625 
L 2419 1625 
L 2419 4116 
z
M 2253 4666 
L 3047 4666 
L 3047 1625 
L 3713 1625 
L 3713 1100 
L 3047 1100 
L 3047 0 
L 2419 0 
L 2419 1100 
L 313 1100 
L 313 1709 
L 2253 4666 
z
" transform="scale(0.015625)"/>
       </defs>
       <use xlink:href="#DejaVuSans-34"/>
       <use xlink:href="#DejaVuSans-30" x="63.623047"/>
       <use xlink:href="#DejaVuSans-30" x="127.246094"/>
       <use xlink:href="#DejaVuSans-30" x="190.869141"/>
      </g>
     </g>
    </g>
    <g id="ytick_4">
     <g id="line2d_17">
      <path d="M 64.529688 177.427262 
L 421.649688 177.427262 
" clip-path="url(#p326f70b801)" style="fill: none; stroke: #b0b0b0; stroke-width: 0.8; stroke-linecap: square"/>
     </g>
     <g id="line2d_18">
      <g>
       <use xlink:href="#m1bfc5a02a1" x="64.529688" y="177.427262" style="stroke: #000000; stroke-width: 0.8"/>
      </g>
     </g>
     <g id="text_10">
      <!-- 6000 -->
      <g transform="translate(32.079688 181.226481) scale(0.1 -0.1)">
       <defs>
        <path id="DejaVuSans-36" d="M 2113 2584 
Q 1688 2584 1439 2293 
Q 1191 2003 1191 1497 
Q 1191 994 1439 701 
Q 1688 409 2113 409 
Q 2538 409 2786 701 
Q 3034 994 3034 1497 
Q 3034 2003 2786 2293 
Q 2538 2584 2113 2584 
z
M 3366 4563 
L 3366 3988 
Q 3128 4100 2886 4159 
Q 2644 4219 2406 4219 
Q 1781 4219 1451 3797 
Q 1122 3375 1075 2522 
Q 1259 2794 1537 2939 
Q 1816 3084 2150 3084 
Q 2853 3084 3261 2657 
Q 3669 2231 3669 1497 
Q 3669 778 3244 343 
Q 2819 -91 2113 -91 
Q 1303 -91 875 529 
Q 447 1150 447 2328 
Q 447 3434 972 4092 
Q 1497 4750 2381 4750 
Q 2619 4750 2861 4703 
Q 3103 4656 3366 4563 
z
" transform="scale(0.015625)"/>
       </defs>
       <use xlink:href="#DejaVuSans-36"/>
       <use xlink:href="#DejaVuSans-30" x="63.623047"/>
       <use xlink:href="#DejaVuSans-30" x="127.246094"/>
       <use xlink:href="#DejaVuSans-30" x="190.869141"/>
      </g>
     </g>
    </g>
    <g id="ytick_5">
     <g id="line2d_19">
      <path d="M 64.529688 144.458308 
L 421.649688 144.458308 
" clip-path="url(#p326f70b801)" style="fill: none; stroke: #b0b0b0; stroke-width: 0.8; stroke-linecap: square"/>
     </g>
     <g id="line2d_20">
      <g>
       <use xlink:href="#m1bfc5a02a1" x="64.529688" y="144.458308" style="stroke: #000000; stroke-width: 0.8"/>
      </g>
     </g>
     <g id="text_11">
      <!-- 8000 -->
      <g transform="translate(32.079688 148.257527) scale(0.1 -0.1)">
       <defs>
        <path id="DejaVuSans-38" d="M 2034 2216 
Q 1584 2216 1326 1975 
Q 1069 1734 1069 1313 
Q 1069 891 1326 650 
Q 1584 409 2034 409 
Q 2484 409 2743 651 
Q 3003 894 3003 1313 
Q 3003 1734 2745 1975 
Q 2488 2216 2034 2216 
z
M 1403 2484 
Q 997 2584 770 2862 
Q 544 3141 544 3541 
Q 544 4100 942 4425 
Q 1341 4750 2034 4750 
Q 2731 4750 3128 4425 
Q 3525 4100 3525 3541 
Q 3525 3141 3298 2862 
Q 3072 2584 2669 2484 
Q 3125 2378 3379 2068 
Q 3634 1759 3634 1313 
Q 3634 634 3220 271 
Q 2806 -91 2034 -91 
Q 1263 -91 848 271 
Q 434 634 434 1313 
Q 434 1759 690 2068 
Q 947 2378 1403 2484 
z
M 1172 3481 
Q 1172 3119 1398 2916 
Q 1625 2713 2034 2713 
Q 2441 2713 2670 2916 
Q 2900 3119 2900 3481 
Q 2900 3844 2670 4047 
Q 2441 4250 2034 4250 
Q 1625 4250 1398 4047 
Q 1172 3844 1172 3481 
z
" transform="scale(0.015625)"/>
       </defs>
       <use xlink:href="#DejaVuSans-38"/>
       <use xlink:href="#DejaVuSans-30" x="63.623047"/>
       <use xlink:href="#DejaVuSans-30" x="127.246094"/>
       <use xlink:href="#DejaVuSans-30" x="190.869141"/>
      </g>
     </g>
    </g>
    <g id="ytick_6">
     <g id="line2d_21">
      <path d="M 64.529688 111.489354 
L 421.649688 111.489354 
" clip-path="url(#p326f70b801)" style="fill: none; stroke: #b0b0b0; stroke-width: 0.8; stroke-linecap: square"/>
     </g>
     <g id="line2d_22">
      <g>
       <use xlink:href="#m1bfc5a02a1" x="64.529688" y="111.489354" style="stroke: #000000; stroke-width: 0.8"/>
      </g>
     </g>
     <g id="text_12">
      <!-- 10000 -->
      <g transform="translate(25.717188 115.288573) scale(0.1 -0.1)">
       <use xlink:href="#DejaVuSans-31"/>
       <use xlink:href="#DejaVuSans-30" x="63.623047"/>
       <use xlink:href="#DejaVuSans-30" x="127.246094"/>
       <use xlink:href="#DejaVuSans-30" x="190.869141"/>
       <use xlink:href="#DejaVuSans-30" x="254.492188"/>
      </g>
     </g>
    </g>
    <g id="ytick_7">
     <g id="line2d_23">
      <path d="M 64.529688 78.5204 
L 421.649688 78.5204 
" clip-path="url(#p326f70b801)" style="fill: none; stroke: #b0b0b0; stroke-width: 0.8; stroke-linecap: square"/>
     </g>
     <g id="line2d_24">
      <g>
       <use xlink:href="#m1bfc5a02a1" x="64.529688" y="78.5204" style="stroke: #000000; stroke-width: 0.8"/>
      </g>
     </g>
     <g id="text_13">
      <!-- 12000 -->
      <g transform="translate(25.717188 82.319618) scale(0.1 -0.1)">
       <use xlink:href="#DejaVuSans-31"/>
       <use xlink:href="#DejaVuSans-32" x="63.623047"/>
       <use xlink:href="#DejaVuSans-30" x="127.246094"/>
       <use xlink:href="#DejaVuSans-30" x="190.869141"/>
       <use xlink:href="#DejaVuSans-30" x="254.492188"/>
      </g>
     </g>
    </g>
    <g id="ytick_8">
     <g id="line2d_25">
      <path d="M 64.529688 45.551445 
L 421.649688 45.551445 
" clip-path="url(#p326f70b801)" style="fill: none; stroke: #b0b0b0; stroke-width: 0.8; stroke-linecap: square"/>
     </g>
     <g id="line2d_26">
      <g>
       <use xlink:href="#m1bfc5a02a1" x="64.529688" y="45.551445" style="stroke: #000000; stroke-width: 0.8"/>
      </g>
     </g>
     <g id="text_14">
      <!-- 14000 -->
      <g transform="translate(25.717188 49.350664) scale(0.1 -0.1)">
       <use xlink:href="#DejaVuSans-31"/>
       <use xlink:href="#DejaVuSans-34" x="63.623047"/>
       <use xlink:href="#DejaVuSans-30" x="127.246094"/>
       <use xlink:href="#DejaVuSans-30" x="190.869141"/>
       <use xlink:href="#DejaVuSans-30" x="254.492188"/>
      </g>
     </g>
    </g>
    <g id="text_15">
     <!-- Power produced[W] -->
     <g transform="translate(18.597656 228.976078) rotate(-90) scale(0.15 -0.15)">
      <defs>
       <path id="DejaVuSans-50" d="M 1259 4147 
L 1259 2394 
L 2053 2394 
Q 2494 2394 2734 2622 
Q 2975 2850 2975 3272 
Q 2975 3691 2734 3919 
Q 2494 4147 2053 4147 
L 1259 4147 
z
M 628 4666 
L 2053 4666 
Q 2838 4666 3239 4311 
Q 3641 3956 3641 3272 
Q 3641 2581 3239 2228 
Q 2838 1875 2053 1875 
L 1259 1875 
L 1259 0 
L 628 0 
L 628 4666 
z
" transform="scale(0.015625)"/>
       <path id="DejaVuSans-77" d="M 269 3500 
L 844 3500 
L 1563 769 
L 2278 3500 
L 2956 3500 
L 3675 769 
L 4391 3500 
L 4966 3500 
L 4050 0 
L 3372 0 
L 2619 2869 
L 1863 0 
L 1184 0 
L 269 3500 
z
" transform="scale(0.015625)"/>
       <path id="DejaVuSans-72" d="M 2631 2963 
Q 2534 3019 2420 3045 
Q 2306 3072 2169 3072 
Q 1681 3072 1420 2755 
Q 1159 2438 1159 1844 
L 1159 0 
L 581 0 
L 581 3500 
L 1159 3500 
L 1159 2956 
Q 1341 3275 1631 3429 
Q 1922 3584 2338 3584 
Q 2397 3584 2469 3576 
Q 2541 3569 2628 3553 
L 2631 2963 
z
" transform="scale(0.015625)"/>
       <path id="DejaVuSans-70" d="M 1159 525 
L 1159 -1331 
L 581 -1331 
L 581 3500 
L 1159 3500 
L 1159 2969 
Q 1341 3281 1617 3432 
Q 1894 3584 2278 3584 
Q 2916 3584 3314 3078 
Q 3713 2572 3713 1747 
Q 3713 922 3314 415 
Q 2916 -91 2278 -91 
Q 1894 -91 1617 61 
Q 1341 213 1159 525 
z
M 3116 1747 
Q 3116 2381 2855 2742 
Q 2594 3103 2138 3103 
Q 1681 3103 1420 2742 
Q 1159 2381 1159 1747 
Q 1159 1113 1420 752 
Q 1681 391 2138 391 
Q 2594 391 2855 752 
Q 3116 1113 3116 1747 
z
" transform="scale(0.015625)"/>
       <path id="DejaVuSans-64" d="M 2906 2969 
L 2906 4863 
L 3481 4863 
L 3481 0 
L 2906 0 
L 2906 525 
Q 2725 213 2448 61 
Q 2172 -91 1784 -91 
Q 1150 -91 751 415 
Q 353 922 353 1747 
Q 353 2572 751 3078 
Q 1150 3584 1784 3584 
Q 2172 3584 2448 3432 
Q 2725 3281 2906 2969 
z
M 947 1747 
Q 947 1113 1208 752 
Q 1469 391 1925 391 
Q 2381 391 2643 752 
Q 2906 1113 2906 1747 
Q 2906 2381 2643 2742 
Q 2381 3103 1925 3103 
Q 1469 3103 1208 2742 
Q 947 2381 947 1747 
z
" transform="scale(0.015625)"/>
       <path id="DejaVuSans-75" d="M 544 1381 
L 544 3500 
L 1119 3500 
L 1119 1403 
Q 1119 906 1312 657 
Q 1506 409 1894 409 
Q 2359 409 2629 706 
Q 2900 1003 2900 1516 
L 2900 3500 
L 3475 3500 
L 3475 0 
L 2900 0 
L 2900 538 
Q 2691 219 2414 64 
Q 2138 -91 1772 -91 
Q 1169 -91 856 284 
Q 544 659 544 1381 
z
M 1991 3584 
L 1991 3584 
z
" transform="scale(0.015625)"/>
       <path id="DejaVuSans-5b" d="M 550 4863 
L 1875 4863 
L 1875 4416 
L 1125 4416 
L 1125 -397 
L 1875 -397 
L 1875 -844 
L 550 -844 
L 550 4863 
z
" transform="scale(0.015625)"/>
       <path id="DejaVuSans-57" d="M 213 4666 
L 850 4666 
L 1831 722 
L 2809 4666 
L 3519 4666 
L 4500 722 
L 5478 4666 
L 6119 4666 
L 4947 0 
L 4153 0 
L 3169 4050 
L 2175 0 
L 1381 0 
L 213 4666 
z
" transform="scale(0.015625)"/>
       <path id="DejaVuSans-5d" d="M 1947 4863 
L 1947 -844 
L 622 -844 
L 622 -397 
L 1369 -397 
L 1369 4416 
L 622 4416 
L 622 4863 
L 1947 4863 
z
" transform="scale(0.015625)"/>
      </defs>
      <use xlink:href="#DejaVuSans-50"/>
      <use xlink:href="#DejaVuSans-6f" x="56.677734"/>
      <use xlink:href="#DejaVuSans-77" x="117.859375"/>
      <use xlink:href="#DejaVuSans-65" x="199.646484"/>
      <use xlink:href="#DejaVuSans-72" x="261.169922"/>
      <use xlink:href="#DejaVuSans-20" x="302.283203"/>
      <use xlink:href="#DejaVuSans-70" x="334.070312"/>
      <use xlink:href="#DejaVuSans-72" x="397.546875"/>
      <use xlink:href="#DejaVuSans-6f" x="436.410156"/>
      <use xlink:href="#DejaVuSans-64" x="497.591797"/>
      <use xlink:href="#DejaVuSans-75" x="561.068359"/>
      <use xlink:href="#DejaVuSans-63" x="624.447266"/>
      <use xlink:href="#DejaVuSans-65" x="679.427734"/>
      <use xlink:href="#DejaVuSans-64" x="740.951172"/>
      <use xlink:href="#DejaVuSans-5b" x="804.427734"/>
      <use xlink:href="#DejaVuSans-57" x="843.441406"/>
      <use xlink:href="#DejaVuSans-5d" x="942.318359"/>
     </g>
    </g>
   </g>
   <g id="line2d_27">
    <path d="M 80.762415 276.334125 
L 96.150553 276.317641 
L 111.538691 276.301156 
L 128.159639 269.963979 
L 143.528723 261.911872 
L 158.909918 248.767281 
L 174.29909 229.358665 
L 189.693659 202.341082 
L 205.09213 166.827137 
L 220.4937 122.004978 
L 235.897878 72.142573 
L 244.987214 48.315129 
L 251.303426 40.63746 
L 266.711051 35.244667 
L 282.120019 34.482688 
L 297.530555 34.787903 
L 312.94181 35.061478 
L 328.353238 35.330268 
L 343.765011 35.594406 
L 359.177804 35.811373 
L 374.590738 35.9882 
L 390.003368 36.126909 
L 405.41696 36.221358 
" clip-path="url(#p326f70b801)" style="fill: none; stroke: #1f77b4; stroke-width: 1.5; stroke-linecap: square"/>
    <defs>
     <path id="m49cc4d361a" d="M 0 3 
C 0.795609 3 1.55874 2.683901 2.12132 2.12132 
C 2.683901 1.55874 3 0.795609 3 0 
C 3 -0.795609 2.683901 -1.55874 2.12132 -2.12132 
C 1.55874 -2.683901 0.795609 -3 0 -3 
C -0.795609 -3 -1.55874 -2.683901 -2.12132 -2.12132 
C -2.683901 -1.55874 -3 -0.795609 -3 0 
C -3 0.795609 -2.683901 1.55874 -2.12132 2.12132 
C -1.55874 2.683901 -0.795609 3 0 3 
z
" style="stroke: #1f77b4"/>
    </defs>
    <g clip-path="url(#p326f70b801)">
     <use xlink:href="#m49cc4d361a" x="80.762415" y="276.334125" style="fill: #1f77b4; stroke: #1f77b4"/>
     <use xlink:href="#m49cc4d361a" x="96.150553" y="276.317641" style="fill: #1f77b4; stroke: #1f77b4"/>
     <use xlink:href="#m49cc4d361a" x="111.538691" y="276.301156" style="fill: #1f77b4; stroke: #1f77b4"/>
     <use xlink:href="#m49cc4d361a" x="128.159639" y="269.963979" style="fill: #1f77b4; stroke: #1f77b4"/>
     <use xlink:href="#m49cc4d361a" x="143.528723" y="261.911872" style="fill: #1f77b4; stroke: #1f77b4"/>
     <use xlink:href="#m49cc4d361a" x="158.909918" y="248.767281" style="fill: #1f77b4; stroke: #1f77b4"/>
     <use xlink:href="#m49cc4d361a" x="174.29909" y="229.358665" style="fill: #1f77b4; stroke: #1f77b4"/>
     <use xlink:href="#m49cc4d361a" x="189.693659" y="202.341082" style="fill: #1f77b4; stroke: #1f77b4"/>
     <use xlink:href="#m49cc4d361a" x="205.09213" y="166.827137" style="fill: #1f77b4; stroke: #1f77b4"/>
     <use xlink:href="#m49cc4d361a" x="220.4937" y="122.004978" style="fill: #1f77b4; stroke: #1f77b4"/>
     <use xlink:href="#m49cc4d361a" x="235.897878" y="72.142573" style="fill: #1f77b4; stroke: #1f77b4"/>
     <use xlink:href="#m49cc4d361a" x="244.987214" y="48.315129" style="fill: #1f77b4; stroke: #1f77b4"/>
     <use xlink:href="#m49cc4d361a" x="251.303426" y="40.63746" style="fill: #1f77b4; stroke: #1f77b4"/>
     <use xlink:href="#m49cc4d361a" x="266.711051" y="35.244667" style="fill: #1f77b4; stroke: #1f77b4"/>
     <use xlink:href="#m49cc4d361a" x="282.120019" y="34.482688" style="fill: #1f77b4; stroke: #1f77b4"/>
     <use xlink:href="#m49cc4d361a" x="297.530555" y="34.787903" style="fill: #1f77b4; stroke: #1f77b4"/>
     <use xlink:href="#m49cc4d361a" x="312.94181" y="35.061478" style="fill: #1f77b4; stroke: #1f77b4"/>
     <use xlink:href="#m49cc4d361a" x="328.353238" y="35.330268" style="fill: #1f77b4; stroke: #1f77b4"/>
     <use xlink:href="#m49cc4d361a" x="343.765011" y="35.594406" style="fill: #1f77b4; stroke: #1f77b4"/>
     <use xlink:href="#m49cc4d361a" x="359.177804" y="35.811373" style="fill: #1f77b4; stroke: #1f77b4"/>
     <use xlink:href="#m49cc4d361a" x="374.590738" y="35.9882" style="fill: #1f77b4; stroke: #1f77b4"/>
     <use xlink:href="#m49cc4d361a" x="390.003368" y="36.126909" style="fill: #1f77b4; stroke: #1f77b4"/>
     <use xlink:href="#m49cc4d361a" x="405.41696" y="36.221358" style="fill: #1f77b4; stroke: #1f77b4"/>
    </g>
   </g>
   <g id="line2d_28">
    <path d="M 80.762415 276.334125 
L 96.150553 276.317641 
L 111.538691 276.301156 
L 128.150947 270.517341 
L 143.516421 263.161712 
L 158.894032 251.225582 
L 174.279713 233.557366 
L 189.670718 209.094552 
L 205.065644 176.977638 
L 220.463877 136.360347 
L 235.864173 88.735502 
L 244.951765 60.782138 
L 251.266683 46.855262 
L 266.670759 36.192361 
L 282.07613 34.414125 
L 297.482311 34.601693 
L 312.8903 34.888428 
L 328.298323 35.178258 
L 343.70644 35.498277 
L 359.116219 35.663195 
L 374.525443 35.855101 
L 389.935017 36.050107 
L 405.3446 36.149712 
" clip-path="url(#p326f70b801)" style="fill: none; stroke: #ff7f0e; stroke-width: 1.5; stroke-linecap: square"/>
    <defs>
     <path id="m5831a47448" d="M -3 3 
L 3 3 
L 3 -3 
L -3 -3 
z
" style="stroke: #ff7f0e; stroke-linejoin: miter"/>
    </defs>
    <g clip-path="url(#p326f70b801)">
     <use xlink:href="#m5831a47448" x="80.762415" y="276.334125" style="fill: #ff7f0e; stroke: #ff7f0e; stroke-linejoin: miter"/>
     <use xlink:href="#m5831a47448" x="96.150553" y="276.317641" style="fill: #ff7f0e; stroke: #ff7f0e; stroke-linejoin: miter"/>
     <use xlink:href="#m5831a47448" x="111.538691" y="276.301156" style="fill: #ff7f0e; stroke: #ff7f0e; stroke-linejoin: miter"/>
     <use xlink:href="#m5831a47448" x="128.150947" y="270.517341" style="fill: #ff7f0e; stroke: #ff7f0e; stroke-linejoin: miter"/>
     <use xlink:href="#m5831a47448" x="143.516421" y="263.161712" style="fill: #ff7f0e; stroke: #ff7f0e; stroke-linejoin: miter"/>
     <use xlink:href="#m5831a47448" x="158.894032" y="251.225582" style="fill: #ff7f0e; stroke: #ff7f0e; stroke-linejoin: miter"/>
     <use xlink:href="#m5831a47448" x="174.279713" y="233.557366" style="fill: #ff7f0e; stroke: #ff7f0e; stroke-linejoin: miter"/>
     <use xlink:href="#m5831a47448" x="189.670718" y="209.094552" style="fill: #ff7f0e; stroke: #ff7f0e; stroke-linejoin: miter"/>
     <use xlink:href="#m5831a47448" x="205.065644" y="176.977638" style="fill: #ff7f0e; stroke: #ff7f0e; stroke-linejoin: miter"/>
     <use xlink:href="#m5831a47448" x="220.463877" y="136.360347" style="fill: #ff7f0e; stroke: #ff7f0e; stroke-linejoin: miter"/>
     <use xlink:href="#m5831a47448" x="235.864173" y="88.735502" style="fill: #ff7f0e; stroke: #ff7f0e; stroke-linejoin: miter"/>
     <use xlink:href="#m5831a47448" x="244.951765" y="60.782138" style="fill: #ff7f0e; stroke: #ff7f0e; stroke-linejoin: miter"/>
     <use xlink:href="#m5831a47448" x="251.266683" y="46.855262" style="fill: #ff7f0e; stroke: #ff7f0e; stroke-linejoin: miter"/>
     <use xlink:href="#m5831a47448" x="266.670759" y="36.192361" style="fill: #ff7f0e; stroke: #ff7f0e; stroke-linejoin: miter"/>
     <use xlink:href="#m5831a47448" x="282.07613" y="34.414125" style="fill: #ff7f0e; stroke: #ff7f0e; stroke-linejoin: miter"/>
     <use xlink:href="#m5831a47448" x="297.482311" y="34.601693" style="fill: #ff7f0e; stroke: #ff7f0e; stroke-linejoin: miter"/>
     <use xlink:href="#m5831a47448" x="312.8903" y="34.888428" style="fill: #ff7f0e; stroke: #ff7f0e; stroke-linejoin: miter"/>
     <use xlink:href="#m5831a47448" x="328.298323" y="35.178258" style="fill: #ff7f0e; stroke: #ff7f0e; stroke-linejoin: miter"/>
     <use xlink:href="#m5831a47448" x="343.70644" y="35.498277" style="fill: #ff7f0e; stroke: #ff7f0e; stroke-linejoin: miter"/>
     <use xlink:href="#m5831a47448" x="359.116219" y="35.663195" style="fill: #ff7f0e; stroke: #ff7f0e; stroke-linejoin: miter"/>
     <use xlink:href="#m5831a47448" x="374.525443" y="35.855101" style="fill: #ff7f0e; stroke: #ff7f0e; stroke-linejoin: miter"/>
     <use xlink:href="#m5831a47448" x="389.935017" y="36.050107" style="fill: #ff7f0e; stroke: #ff7f0e; stroke-linejoin: miter"/>
     <use xlink:href="#m5831a47448" x="405.3446" y="36.149712" style="fill: #ff7f0e; stroke: #ff7f0e; stroke-linejoin: miter"/>
    </g>
   </g>
   <g id="line2d_29">
    <path d="M 80.762415 276.334125 
L 96.150553 276.317641 
L 111.538691 276.301156 
L 128.161423 269.744096 
L 143.531685 261.392704 
L 158.914018 247.784037 
L 174.304355 227.598964 
L 189.700083 199.584975 
L 205.099728 162.78203 
L 220.502378 116.310268 
L 235.907636 65.994495 
L 244.997362 45.15976 
L 251.314245 39.174764 
L 266.723349 34.993283 
L 282.133688 34.543999 
L 297.544237 34.889243 
L 312.956822 35.176619 
L 328.369217 35.457122 
L 343.781759 35.620515 
L 359.195658 35.870573 
L 374.610045 36.006658 
L 390.024078 36.17273 
" clip-path="url(#p326f70b801)" style="fill: none; stroke: #2ca02c; stroke-width: 1.5; stroke-linecap: square"/>
    <defs>
     <path id="m4f90079e80" d="M 0 -3 
L -3 3 
L 3 3 
z
" style="stroke: #2ca02c; stroke-linejoin: miter"/>
    </defs>
    <g clip-path="url(#p326f70b801)">
     <use xlink:href="#m4f90079e80" x="80.762415" y="276.334125" style="fill: #2ca02c; stroke: #2ca02c; stroke-linejoin: miter"/>
     <use xlink:href="#m4f90079e80" x="96.150553" y="276.317641" style="fill: #2ca02c; stroke: #2ca02c; stroke-linejoin: miter"/>
     <use xlink:href="#m4f90079e80" x="111.538691" y="276.301156" style="fill: #2ca02c; stroke: #2ca02c; stroke-linejoin: miter"/>
     <use xlink:href="#m4f90079e80" x="128.161423" y="269.744096" style="fill: #2ca02c; stroke: #2ca02c; stroke-linejoin: miter"/>
     <use xlink:href="#m4f90079e80" x="143.531685" y="261.392704" style="fill: #2ca02c; stroke: #2ca02c; stroke-linejoin: miter"/>
     <use xlink:href="#m4f90079e80" x="158.914018" y="247.784037" style="fill: #2ca02c; stroke: #2ca02c; stroke-linejoin: miter"/>
     <use xlink:href="#m4f90079e80" x="174.304355" y="227.598964" style="fill: #2ca02c; stroke: #2ca02c; stroke-linejoin: miter"/>
     <use xlink:href="#m4f90079e80" x="189.700083" y="199.584975" style="fill: #2ca02c; stroke: #2ca02c; stroke-linejoin: miter"/>
     <use xlink:href="#m4f90079e80" x="205.099728" y="162.78203" style="fill: #2ca02c; stroke: #2ca02c; stroke-linejoin: miter"/>
     <use xlink:href="#m4f90079e80" x="220.502378" y="116.310268" style="fill: #2ca02c; stroke: #2ca02c; stroke-linejoin: miter"/>
     <use xlink:href="#m4f90079e80" x="235.907636" y="65.994495" style="fill: #2ca02c; stroke: #2ca02c; stroke-linejoin: miter"/>
     <use xlink:href="#m4f90079e80" x="244.997362" y="45.15976" style="fill: #2ca02c; stroke: #2ca02c; stroke-linejoin: miter"/>
     <use xlink:href="#m4f90079e80" x="251.314245" y="39.174764" style="fill: #2ca02c; stroke: #2ca02c; stroke-linejoin: miter"/>
     <use xlink:href="#m4f90079e80" x="266.723349" y="34.993283" style="fill: #2ca02c; stroke: #2ca02c; stroke-linejoin: miter"/>
     <use xlink:href="#m4f90079e80" x="282.133688" y="34.543999" style="fill: #2ca02c; stroke: #2ca02c; stroke-linejoin: miter"/>
     <use xlink:href="#m4f90079e80" x="297.544237" y="34.889243" style="fill: #2ca02c; stroke: #2ca02c; stroke-linejoin: miter"/>
     <use xlink:href="#m4f90079e80" x="312.956822" y="35.176619" style="fill: #2ca02c; stroke: #2ca02c; stroke-linejoin: miter"/>
     <use xlink:href="#m4f90079e80" x="328.369217" y="35.457122" style="fill: #2ca02c; stroke: #2ca02c; stroke-linejoin: miter"/>
     <use xlink:href="#m4f90079e80" x="343.781759" y="35.620515" style="fill: #2ca02c; stroke: #2ca02c; stroke-linejoin: miter"/>
     <use xlink:href="#m4f90079e80" x="359.195658" y="35.870573" style="fill: #2ca02c; stroke: #2ca02c; stroke-linejoin: miter"/>
     <use xlink:href="#m4f90079e80" x="374.610045" y="36.006658" style="fill: #2ca02c; stroke: #2ca02c; stroke-linejoin: miter"/>
     <use xlink:href="#m4f90079e80" x="390.024078" y="36.17273" style="fill: #2ca02c; stroke: #2ca02c; stroke-linejoin: miter"/>
    </g>
   </g>
   <g id="line2d_30">
    <path d="M 80.762415 276.334125 
L 96.150553 276.317641 
L 111.538691 276.301156 
L 128.161092 269.725417 
L 143.531425 261.31675 
L 158.913917 247.667497 
L 174.304448 227.383985 
L 189.700163 199.251032 
L 205.099799 162.209345 
L 220.502672 115.629065 
L 235.907961 65.199324 
L 244.99804 44.78124 
L 251.314435 39.120252 
L 266.72357 35.07918 
L 282.133993 34.598071 
L 297.545177 34.879147 
L 312.957323 35.133028 
L 328.369797 35.467599 
L 343.78321 35.630731 
L 359.196889 35.836282 
L 374.610926 36.024282 
L 390.024877 36.159414 
" clip-path="url(#p326f70b801)" style="fill: none; stroke: #d62728; stroke-width: 1.5; stroke-linecap: square"/>
    <defs>
     <path id="mb709828910" d="M 0 4.242641 
L 2.545584 0 
L 0 -4.242641 
L -2.545584 0 
z
" style="stroke: #d62728; stroke-linejoin: miter"/>
    </defs>
    <g clip-path="url(#p326f70b801)">
     <use xlink:href="#mb709828910" x="80.762415" y="276.334125" style="fill: #d62728; stroke: #d62728; stroke-linejoin: miter"/>
     <use xlink:href="#mb709828910" x="96.150553" y="276.317641" style="fill: #d62728; stroke: #d62728; stroke-linejoin: miter"/>
     <use xlink:href="#mb709828910" x="111.538691" y="276.301156" style="fill: #d62728; stroke: #d62728; stroke-linejoin: miter"/>
     <use xlink:href="#mb709828910" x="128.161092" y="269.725417" style="fill: #d62728; stroke: #d62728; stroke-linejoin: miter"/>
     <use xlink:href="#mb709828910" x="143.531425" y="261.31675" style="fill: #d62728; stroke: #d62728; stroke-linejoin: miter"/>
     <use xlink:href="#mb709828910" x="158.913917" y="247.667497" style="fill: #d62728; stroke: #d62728; stroke-linejoin: miter"/>
     <use xlink:href="#mb709828910" x="174.304448" y="227.383985" style="fill: #d62728; stroke: #d62728; stroke-linejoin: miter"/>
     <use xlink:href="#mb709828910" x="189.700163" y="199.251032" style="fill: #d62728; stroke: #d62728; stroke-linejoin: miter"/>
     <use xlink:href="#mb709828910" x="205.099799" y="162.209345" style="fill: #d62728; stroke: #d62728; stroke-linejoin: miter"/>
     <use xlink:href="#mb709828910" x="220.502672" y="115.629065" style="fill: #d62728; stroke: #d62728; stroke-linejoin: miter"/>
     <use xlink:href="#mb709828910" x="235.907961" y="65.199324" style="fill: #d62728; stroke: #d62728; stroke-linejoin: miter"/>
     <use xlink:href="#mb709828910" x="244.99804" y="44.78124" style="fill: #d62728; stroke: #d62728; stroke-linejoin: miter"/>
     <use xlink:href="#mb709828910" x="251.314435" y="39.120252" style="fill: #d62728; stroke: #d62728; stroke-linejoin: miter"/>
     <use xlink:href="#mb709828910" x="266.72357" y="35.07918" style="fill: #d62728; stroke: #d62728; stroke-linejoin: miter"/>
     <use xlink:href="#mb709828910" x="282.133993" y="34.598071" style="fill: #d62728; stroke: #d62728; stroke-linejoin: miter"/>
     <use xlink:href="#mb709828910" x="297.545177" y="34.879147" style="fill: #d62728; stroke: #d62728; stroke-linejoin: miter"/>
     <use xlink:href="#mb709828910" x="312.957323" y="35.133028" style="fill: #d62728; stroke: #d62728; stroke-linejoin: miter"/>
     <use xlink:href="#mb709828910" x="328.369797" y="35.467599" style="fill: #d62728; stroke: #d62728; stroke-linejoin: miter"/>
     <use xlink:href="#mb709828910" x="343.78321" y="35.630731" style="fill: #d62728; stroke: #d62728; stroke-linejoin: miter"/>
     <use xlink:href="#mb709828910" x="359.196889" y="35.836282" style="fill: #d62728; stroke: #d62728; stroke-linejoin: miter"/>
     <use xlink:href="#mb709828910" x="374.610926" y="36.024282" style="fill: #d62728; stroke: #d62728; stroke-linejoin: miter"/>
     <use xlink:href="#mb709828910" x="390.024877" y="36.159414" style="fill: #d62728; stroke: #d62728; stroke-linejoin: miter"/>
    </g>
   </g>
   <g id="patch_3">
    <path d="M 64.529688 288.430125 
L 64.529688 22.318125 
" style="fill: none; stroke: #000000; stroke-width: 0.8; stroke-linejoin: miter; stroke-linecap: square"/>
   </g>
   <g id="patch_4">
    <path d="M 421.649688 288.430125 
L 421.649688 22.318125 
" style="fill: none; stroke: #000000; stroke-width: 0.8; stroke-linejoin: miter; stroke-linecap: square"/>
   </g>
   <g id="patch_5">
    <path d="M 64.529688 288.430125 
L 421.649688 288.430125 
" style="fill: none; stroke: #000000; stroke-width: 0.8; stroke-linejoin: miter; stroke-linecap: square"/>
   </g>
   <g id="patch_6">
    <path d="M 64.529688 22.318125 
L 421.649688 22.318125 
" style="fill: none; stroke: #000000; stroke-width: 0.8; stroke-linejoin: miter; stroke-linecap: square"/>
   </g>
   <g id="text_16">
    <!-- Power curve for Low Turbulence Wind Veer Effect -->
    <g transform="translate(96.012813 16.318125) scale(0.12 -0.12)">
     <defs>
      <path id="DejaVuSans-76" d="M 191 3500 
L 800 3500 
L 1894 563 
L 2988 3500 
L 3597 3500 
L 2284 0 
L 1503 0 
L 191 3500 
z
" transform="scale(0.015625)"/>
      <path id="DejaVuSans-66" d="M 2375 4863 
L 2375 4384 
L 1825 4384 
Q 1516 4384 1395 4259 
Q 1275 4134 1275 3809 
L 1275 3500 
L 2222 3500 
L 2222 3053 
L 1275 3053 
L 1275 0 
L 697 0 
L 697 3053 
L 147 3053 
L 147 3500 
L 697 3500 
L 697 3744 
Q 697 4328 969 4595 
Q 1241 4863 1831 4863 
L 2375 4863 
z
" transform="scale(0.015625)"/>
      <path id="DejaVuSans-4c" d="M 628 4666 
L 1259 4666 
L 1259 531 
L 3531 531 
L 3531 0 
L 628 0 
L 628 4666 
z
" transform="scale(0.015625)"/>
      <path id="DejaVuSans-54" d="M -19 4666 
L 3928 4666 
L 3928 4134 
L 2272 4134 
L 2272 0 
L 1638 0 
L 1638 4134 
L -19 4134 
L -19 4666 
z
" transform="scale(0.015625)"/>
      <path id="DejaVuSans-62" d="M 3116 1747 
Q 3116 2381 2855 2742 
Q 2594 3103 2138 3103 
Q 1681 3103 1420 2742 
Q 1159 2381 1159 1747 
Q 1159 1113 1420 752 
Q 1681 391 2138 391 
Q 2594 391 2855 752 
Q 3116 1113 3116 1747 
z
M 1159 2969 
Q 1341 3281 1617 3432 
Q 1894 3584 2278 3584 
Q 2916 3584 3314 3078 
Q 3713 2572 3713 1747 
Q 3713 922 3314 415 
Q 2916 -91 2278 -91 
Q 1894 -91 1617 61 
Q 1341 213 1159 525 
L 1159 0 
L 581 0 
L 581 4863 
L 1159 4863 
L 1159 2969 
z
" transform="scale(0.015625)"/>
      <path id="DejaVuSans-6e" d="M 3513 2113 
L 3513 0 
L 2938 0 
L 2938 2094 
Q 2938 2591 2744 2837 
Q 2550 3084 2163 3084 
Q 1697 3084 1428 2787 
Q 1159 2491 1159 1978 
L 1159 0 
L 581 0 
L 581 3500 
L 1159 3500 
L 1159 2956 
Q 1366 3272 1645 3428 
Q 1925 3584 2291 3584 
Q 2894 3584 3203 3211 
Q 3513 2838 3513 2113 
z
" transform="scale(0.015625)"/>
      <path id="DejaVuSans-45" d="M 628 4666 
L 3578 4666 
L 3578 4134 
L 1259 4134 
L 1259 2753 
L 3481 2753 
L 3481 2222 
L 1259 2222 
L 1259 531 
L 3634 531 
L 3634 0 
L 628 0 
L 628 4666 
z
" transform="scale(0.015625)"/>
     </defs>
     <use xlink:href="#DejaVuSans-50"/>
     <use xlink:href="#DejaVuSans-6f" x="56.677734"/>
     <use xlink:href="#DejaVuSans-77" x="117.859375"/>
     <use xlink:href="#DejaVuSans-65" x="199.646484"/>
     <use xlink:href="#DejaVuSans-72" x="261.169922"/>
     <use xlink:href="#DejaVuSans-20" x="302.283203"/>
     <use xlink:href="#DejaVuSans-63" x="334.070312"/>
     <use xlink:href="#DejaVuSans-75" x="389.050781"/>
     <use xlink:href="#DejaVuSans-72" x="452.429688"/>
     <use xlink:href="#DejaVuSans-76" x="493.542969"/>
     <use xlink:href="#DejaVuSans-65" x="552.722656"/>
     <use xlink:href="#DejaVuSans-20" x="614.246094"/>
     <use xlink:href="#DejaVuSans-66" x="646.033203"/>
     <use xlink:href="#DejaVuSans-6f" x="681.238281"/>
     <use xlink:href="#DejaVuSans-72" x="742.419922"/>
     <use xlink:href="#DejaVuSans-20" x="783.533203"/>
     <use xlink:href="#DejaVuSans-4c" x="815.320312"/>
     <use xlink:href="#DejaVuSans-6f" x="869.283203"/>
     <use xlink:href="#DejaVuSans-77" x="930.464844"/>
     <use xlink:href="#DejaVuSans-20" x="1012.251953"/>
     <use xlink:href="#DejaVuSans-54" x="1044.039062"/>
     <use xlink:href="#DejaVuSans-75" x="1089.998047"/>
     <use xlink:href="#DejaVuSans-72" x="1153.376953"/>
     <use xlink:href="#DejaVuSans-62" x="1194.490234"/>
     <use xlink:href="#DejaVuSans-75" x="1257.966797"/>
     <use xlink:href="#DejaVuSans-6c" x="1321.345703"/>
     <use xlink:href="#DejaVuSans-65" x="1349.128906"/>
     <use xlink:href="#DejaVuSans-6e" x="1410.652344"/>
     <use xlink:href="#DejaVuSans-63" x="1474.03125"/>
     <use xlink:href="#DejaVuSans-65" x="1529.011719"/>
     <use xlink:href="#DejaVuSans-20" x="1590.535156"/>
     <use xlink:href="#DejaVuSans-57" x="1622.322266"/>
     <use xlink:href="#DejaVuSans-69" x="1718.949219"/>
     <use xlink:href="#DejaVuSans-6e" x="1746.732422"/>
     <use xlink:href="#DejaVuSans-64" x="1810.111328"/>
     <use xlink:href="#DejaVuSans-20" x="1873.587891"/>
     <use xlink:href="#DejaVuSans-56" x="1905.375"/>
     <use xlink:href="#DejaVuSans-65" x="1966.033203"/>
     <use xlink:href="#DejaVuSans-65" x="2027.556641"/>
     <use xlink:href="#DejaVuSans-72" x="2089.080078"/>
     <use xlink:href="#DejaVuSans-20" x="2130.193359"/>
     <use xlink:href="#DejaVuSans-45" x="2161.980469"/>
     <use xlink:href="#DejaVuSans-66" x="2225.164062"/>
     <use xlink:href="#DejaVuSans-66" x="2260.369141"/>
     <use xlink:href="#DejaVuSans-65" x="2295.574219"/>
     <use xlink:href="#DejaVuSans-63" x="2357.097656"/>
     <use xlink:href="#DejaVuSans-74" x="2412.078125"/>
    </g>
   </g>
   <g id="legend_1">
    <g id="patch_7">
     <path d="M 71.529688 89.865 
L 214.567188 89.865 
Q 216.567188 89.865 216.567188 87.865 
L 216.567188 29.318125 
Q 216.567188 27.318125 214.567188 27.318125 
L 71.529688 27.318125 
Q 69.529688 27.318125 69.529688 29.318125 
L 69.529688 87.865 
Q 69.529688 89.865 71.529688 89.865 
z
" style="fill: #ffffff; opacity: 0.8; stroke: #cccccc; stroke-linejoin: miter"/>
    </g>
    <g id="line2d_31">
     <path d="M 73.529688 35.416562 
L 83.529688 35.416562 
L 93.529688 35.416562 
" style="fill: none; stroke: #1f77b4; stroke-width: 1.5; stroke-linecap: square"/>
     <g>
      <use xlink:href="#m49cc4d361a" x="83.529688" y="35.416562" style="fill: #1f77b4; stroke: #1f77b4"/>
     </g>
    </g>
    <g id="text_17">
     <!-- noshear TIC_veer0.2 -->
     <g transform="translate(101.529688 38.916562) scale(0.1 -0.1)">
      <defs>
       <path id="DejaVuSans-73" d="M 2834 3397 
L 2834 2853 
Q 2591 2978 2328 3040 
Q 2066 3103 1784 3103 
Q 1356 3103 1142 2972 
Q 928 2841 928 2578 
Q 928 2378 1081 2264 
Q 1234 2150 1697 2047 
L 1894 2003 
Q 2506 1872 2764 1633 
Q 3022 1394 3022 966 
Q 3022 478 2636 193 
Q 2250 -91 1575 -91 
Q 1294 -91 989 -36 
Q 684 19 347 128 
L 347 722 
Q 666 556 975 473 
Q 1284 391 1588 391 
Q 1994 391 2212 530 
Q 2431 669 2431 922 
Q 2431 1156 2273 1281 
Q 2116 1406 1581 1522 
L 1381 1569 
Q 847 1681 609 1914 
Q 372 2147 372 2553 
Q 372 3047 722 3315 
Q 1072 3584 1716 3584 
Q 2034 3584 2315 3537 
Q 2597 3491 2834 3397 
z
" transform="scale(0.015625)"/>
       <path id="DejaVuSans-68" d="M 3513 2113 
L 3513 0 
L 2938 0 
L 2938 2094 
Q 2938 2591 2744 2837 
Q 2550 3084 2163 3084 
Q 1697 3084 1428 2787 
Q 1159 2491 1159 1978 
L 1159 0 
L 581 0 
L 581 4863 
L 1159 4863 
L 1159 2956 
Q 1366 3272 1645 3428 
Q 1925 3584 2291 3584 
Q 2894 3584 3203 3211 
Q 3513 2838 3513 2113 
z
" transform="scale(0.015625)"/>
       <path id="DejaVuSans-61" d="M 2194 1759 
Q 1497 1759 1228 1600 
Q 959 1441 959 1056 
Q 959 750 1161 570 
Q 1363 391 1709 391 
Q 2188 391 2477 730 
Q 2766 1069 2766 1631 
L 2766 1759 
L 2194 1759 
z
M 3341 1997 
L 3341 0 
L 2766 0 
L 2766 531 
Q 2569 213 2275 61 
Q 1981 -91 1556 -91 
Q 1019 -91 701 211 
Q 384 513 384 1019 
Q 384 1609 779 1909 
Q 1175 2209 1959 2209 
L 2766 2209 
L 2766 2266 
Q 2766 2663 2505 2880 
Q 2244 3097 1772 3097 
Q 1472 3097 1187 3025 
Q 903 2953 641 2809 
L 641 3341 
Q 956 3463 1253 3523 
Q 1550 3584 1831 3584 
Q 2591 3584 2966 3190 
Q 3341 2797 3341 1997 
z
" transform="scale(0.015625)"/>
       <path id="DejaVuSans-49" d="M 628 4666 
L 1259 4666 
L 1259 0 
L 628 0 
L 628 4666 
z
" transform="scale(0.015625)"/>
       <path id="DejaVuSans-43" d="M 4122 4306 
L 4122 3641 
Q 3803 3938 3442 4084 
Q 3081 4231 2675 4231 
Q 1875 4231 1450 3742 
Q 1025 3253 1025 2328 
Q 1025 1406 1450 917 
Q 1875 428 2675 428 
Q 3081 428 3442 575 
Q 3803 722 4122 1019 
L 4122 359 
Q 3791 134 3420 21 
Q 3050 -91 2638 -91 
Q 1578 -91 968 557 
Q 359 1206 359 2328 
Q 359 3453 968 4101 
Q 1578 4750 2638 4750 
Q 3056 4750 3426 4639 
Q 3797 4528 4122 4306 
z
" transform="scale(0.015625)"/>
       <path id="DejaVuSans-5f" d="M 3263 -1063 
L 3263 -1509 
L -63 -1509 
L -63 -1063 
L 3263 -1063 
z
" transform="scale(0.015625)"/>
       <path id="DejaVuSans-2e" d="M 684 794 
L 1344 794 
L 1344 0 
L 684 0 
L 684 794 
z
" transform="scale(0.015625)"/>
      </defs>
      <use xlink:href="#DejaVuSans-6e"/>
      <use xlink:href="#DejaVuSans-6f" x="63.378906"/>
      <use xlink:href="#DejaVuSans-73" x="124.560547"/>
      <use xlink:href="#DejaVuSans-68" x="176.660156"/>
      <use xlink:href="#DejaVuSans-65" x="240.039062"/>
      <use xlink:href="#DejaVuSans-61" x="301.5625"/>
      <use xlink:href="#DejaVuSans-72" x="362.841797"/>
      <use xlink:href="#DejaVuSans-20" x="403.955078"/>
      <use xlink:href="#DejaVuSans-54" x="435.742188"/>
      <use xlink:href="#DejaVuSans-49" x="496.826172"/>
      <use xlink:href="#DejaVuSans-43" x="526.318359"/>
      <use xlink:href="#DejaVuSans-5f" x="596.142578"/>
      <use xlink:href="#DejaVuSans-76" x="646.142578"/>
      <use xlink:href="#DejaVuSans-65" x="705.322266"/>
      <use xlink:href="#DejaVuSans-65" x="766.845703"/>
      <use xlink:href="#DejaVuSans-72" x="828.369141"/>
      <use xlink:href="#DejaVuSans-30" x="869.482422"/>
      <use xlink:href="#DejaVuSans-2e" x="933.105469"/>
      <use xlink:href="#DejaVuSans-32" x="964.892578"/>
     </g>
    </g>
    <g id="line2d_32">
     <path d="M 73.529688 50.372812 
L 83.529688 50.372812 
L 93.529688 50.372812 
" style="fill: none; stroke: #ff7f0e; stroke-width: 1.5; stroke-linecap: square"/>
     <g>
      <use xlink:href="#m5831a47448" x="83.529688" y="50.372812" style="fill: #ff7f0e; stroke: #ff7f0e; stroke-linejoin: miter"/>
     </g>
    </g>
    <g id="text_18">
     <!-- noshear TIC_veer0.4 -->
     <g transform="translate(101.529688 53.872812) scale(0.1 -0.1)">
      <use xlink:href="#DejaVuSans-6e"/>
      <use xlink:href="#DejaVuSans-6f" x="63.378906"/>
      <use xlink:href="#DejaVuSans-73" x="124.560547"/>
      <use xlink:href="#DejaVuSans-68" x="176.660156"/>
      <use xlink:href="#DejaVuSans-65" x="240.039062"/>
      <use xlink:href="#DejaVuSans-61" x="301.5625"/>
      <use xlink:href="#DejaVuSans-72" x="362.841797"/>
      <use xlink:href="#DejaVuSans-20" x="403.955078"/>
      <use xlink:href="#DejaVuSans-54" x="435.742188"/>
      <use xlink:href="#DejaVuSans-49" x="496.826172"/>
      <use xlink:href="#DejaVuSans-43" x="526.318359"/>
      <use xlink:href="#DejaVuSans-5f" x="596.142578"/>
      <use xlink:href="#DejaVuSans-76" x="646.142578"/>
      <use xlink:href="#DejaVuSans-65" x="705.322266"/>
      <use xlink:href="#DejaVuSans-65" x="766.845703"/>
      <use xlink:href="#DejaVuSans-72" x="828.369141"/>
      <use xlink:href="#DejaVuSans-30" x="869.482422"/>
      <use xlink:href="#DejaVuSans-2e" x="933.105469"/>
      <use xlink:href="#DejaVuSans-34" x="964.892578"/>
     </g>
    </g>
    <g id="line2d_33">
     <path d="M 73.529688 65.329062 
L 83.529688 65.329062 
L 93.529688 65.329062 
" style="fill: none; stroke: #2ca02c; stroke-width: 1.5; stroke-linecap: square"/>
     <g>
      <use xlink:href="#m4f90079e80" x="83.529688" y="65.329062" style="fill: #2ca02c; stroke: #2ca02c; stroke-linejoin: miter"/>
     </g>
    </g>
    <g id="text_19">
     <!-- noshear_TIC_veer0.05 -->
     <g transform="translate(101.529688 68.829062) scale(0.1 -0.1)">
      <use xlink:href="#DejaVuSans-6e"/>
      <use xlink:href="#DejaVuSans-6f" x="63.378906"/>
      <use xlink:href="#DejaVuSans-73" x="124.560547"/>
      <use xlink:href="#DejaVuSans-68" x="176.660156"/>
      <use xlink:href="#DejaVuSans-65" x="240.039062"/>
      <use xlink:href="#DejaVuSans-61" x="301.5625"/>
      <use xlink:href="#DejaVuSans-72" x="362.841797"/>
      <use xlink:href="#DejaVuSans-5f" x="403.955078"/>
      <use xlink:href="#DejaVuSans-54" x="453.955078"/>
      <use xlink:href="#DejaVuSans-49" x="515.039062"/>
      <use xlink:href="#DejaVuSans-43" x="544.53125"/>
      <use xlink:href="#DejaVuSans-5f" x="614.355469"/>
      <use xlink:href="#DejaVuSans-76" x="664.355469"/>
      <use xlink:href="#DejaVuSans-65" x="723.535156"/>
      <use xlink:href="#DejaVuSans-65" x="785.058594"/>
      <use xlink:href="#DejaVuSans-72" x="846.582031"/>
      <use xlink:href="#DejaVuSans-30" x="887.695312"/>
      <use xlink:href="#DejaVuSans-2e" x="951.318359"/>
      <use xlink:href="#DejaVuSans-30" x="983.105469"/>
      <use xlink:href="#DejaVuSans-35" x="1046.728516"/>
     </g>
    </g>
    <g id="line2d_34">
     <path d="M 73.529688 80.285312 
L 83.529688 80.285312 
L 93.529688 80.285312 
" style="fill: none; stroke: #d62728; stroke-width: 1.5; stroke-linecap: square"/>
     <g>
      <use xlink:href="#mb709828910" x="83.529688" y="80.285312" style="fill: #d62728; stroke: #d62728; stroke-linejoin: miter"/>
     </g>
    </g>
    <g id="text_20">
     <!-- TIC -->
     <g transform="translate(101.529688 83.785312) scale(0.1 -0.1)">
      <use xlink:href="#DejaVuSans-54"/>
      <use xlink:href="#DejaVuSans-49" x="61.083984"/>
      <use xlink:href="#DejaVuSans-43" x="90.576172"/>
     </g>
    </g>
   </g>
  </g>
 </g>
 <defs>
  <clipPath id="p326f70b801">
   <rect x="64.529688" y="22.318125" width="357.12" height="266.112"/>
  </clipPath>
 </defs>
</svg>
